<?xml version="1.0" encoding="utf-8"?>
<!-- Generator: Adobe Illustrator 18.1.1, SVG Export Plug-In . SVG Version: 6.00 Build 0)  -->
<svg version="1.1" id="Layer_1" xmlns="http://www.w3.org/2000/svg" xmlns:xlink="http://www.w3.org/1999/xlink" x="0px" y="0px"
	 viewBox="0 0 1040 108" enable-background="new 0 0 1040 108" xml:space="preserve">
<g>
	<path fill-rule="evenodd" clip-rule="evenodd" fill="#FFFFFF" d="M183.8,26.9h22.6v12.2l9.3-11.1c2.4-2.9,8.1-3.5,14.1,1.2
		L226.4,47c-3.3-4.6-7.9-7.7-12.1-7.7c-3.9,0-7.9,2.7-7.9,8.8V64c0,5.6,1.7,7.4,7.5,7.9v2h-29.8l0.1-2.2c5.8-0.1,7.4-1.9,7.4-7.7
		V35.7c0-5.4-2.1-6.7-7.8-6.8V26.9L183.8,26.9z"/>
	<path fill-rule="evenodd" clip-rule="evenodd" fill="#FFFFFF" d="M62.5,60.1c-5.8,6.3-14.3,14.6-27.4,14.8
		c-13.1,0.3-34-7.1-33.6-32.4c0.4-25.1,24-31.7,34.2-32c8-0.2,18.5,3.3,19.7,3.7c2.1,0,3-1.4,3.4-2.8h2l0.3,22.3l-2.4,0.8
		c-1.1-6.3-3-19.1-19-19.4C11.8,14.8,12,66.1,38.9,67.7c5.7,0.4,14.7-2.7,21.8-11L62.5,60.1L62.5,60.1z"/>
	<path fill-rule="evenodd" clip-rule="evenodd" fill="#FFFFFF" d="M160.9,27c14.8,0,27,10.7,27,23.9c0,13.2-12.1,23.9-27,23.9
		c-15,0-27.1-10.7-27.1-23.9C133.9,37.7,146,27,160.9,27L160.9,27z M160.7,30.8c7.4,0,13.3,8.9,13.3,19.8c0,10.9-5.9,20-13.3,20
		c-7.4,0-13.4-9-13.4-20C147.3,39.8,153.3,30.8,160.7,30.8L160.7,30.8z"/>
	<path fill-rule="evenodd" clip-rule="evenodd" fill="#FFFFFF" d="M352.2,27c15,0,27.1,10.7,27.1,23.9c0,13.2-12.1,23.9-27.1,23.9
		c-14.8,0-26.9-10.7-26.9-23.9C325.3,37.7,337.4,27,352.2,27L352.2,27z M352.1,30.8c7.4,0,13.3,8.9,13.3,19.8c0,10.9-5.9,20-13.3,20
		c-7.4,0-13.4-9-13.4-20C338.7,39.8,344.7,30.8,352.1,30.8L352.1,30.8z"/>
	<path fill-rule="evenodd" clip-rule="evenodd" fill="#FFFFFF" d="M130.2,64.3c0.1,5.4,1.7,7.2,7.2,7.6v2h-29.3v-2.1
		c5.5-0.1,7-1.8,7-8.1V19c-0.3-4.9-1.7-5.9-7.4-6.2v-2h22.4V64.3L130.2,64.3z"/>
	<path fill-rule="evenodd" clip-rule="evenodd" fill="#FFFFFF" d="M253.7,49.6l0.1,11.1c0,4.8-2.3,7.6-7,7.6c-5.2,0-7.4-4.1-7.2-8
		c0.1-2.7,1.5-4.9,3.6-5.9L253.7,49.6L253.7,49.6z M228.9,44.3c0.9-12.3,11.7-17.3,20.9-17.3c8.4,0,18.1,5.5,18.1,13.2v23.4
		c0,3.9,2,5.7,5.5,3.8c-1.2,4.4-5.8,7.5-9.5,7.6c-4,0.1-7.7-2.1-9.7-7.1c-4.7,4.5-9.8,6.9-15.2,7c-8.7,0.4-12.6-6.1-12.8-11.4
		c-0.3-5.5,3.1-10.2,9.6-12.1l15.6-4.7c3.9-1.1,2.8-7.4-2.2-9.5C241.3,33.9,233.9,37.1,228.9,44.3L228.9,44.3z"/>
	<path fill-rule="evenodd" clip-rule="evenodd" fill="#FFFFFF" d="M298.9,10.8h21.7v53.9c0,3.4,1.9,6.2,6.7,7.3v1.9h-30.8
		c-18.8,0-25.5-10.4-25.5-23.6c0-10.9,8.6-23.2,21.7-23.2c5,0,9.9,1.2,13.5,4.8l0.1-13.2c0-6.1-1.7-5.8-7.6-6.3V10.8L298.9,10.8z
		 M297,31.8c5.3-0.1,9.5,2,9.5,8.3v25.5c0,2.3-1.9,5-5.3,4.8c-9.2-0.2-15.5-10.4-15.9-20.4C284.9,42.6,288.6,31.9,297,31.8L297,31.8
		z"/>
	<path fill-rule="evenodd" clip-rule="evenodd" fill="#FFFFFF" d="M85.3,27c14.8,0,27,10.7,27,23.9c0,13.2-12.1,23.9-27,23.9
		c-15,0-27.1-10.7-27.1-23.9C58.3,37.7,70.4,27,85.3,27L85.3,27z M85.1,30.8c7.4,0,13.3,8.9,13.3,19.8c0,10.9-5.9,20-13.3,20
		c-7.4,0-13.4-9-13.4-20C71.7,39.7,77.7,30.8,85.1,30.8L85.1,30.8z"/>
	<path fill="#FFFFFF" d="M948.3,26.9v37.4c-0.2,6.3,2.5,7.4,7.7,7.7v1.9h-29.1V72c2.8-0.2,4.6-0.7,5.7-1.8c1.6-1.6,1.6-4,1.6-6.9
		V39.2c0-2.8,0.2-6.9-0.9-8c-1.1-1.1-1.9-2.4-7-2.3v-2L948.3,26.9z M932.9,6.6c0-10.1,16.5-10.1,16.5,0
		C949.4,16.9,932.9,16.8,932.9,6.6"/>
	<path fill-rule="evenodd" clip-rule="evenodd" fill="#FFFFFF" d="M845.4,26.9H868v12.2l9.3-11.1c2.4-2.9,8.1-3.5,14,1.2L888,46.9
		c-3.3-4.6-7.9-7.7-12.1-7.7c-3.9,0-7.9,2.7-7.9,8.8V64c0,5.6,1.7,7.4,7.5,7.9v2h-29.8l0.1-2.2c5.8-0.1,7.4-1.9,7.4-7.7V35.7
		c0-5.4-2.1-6.7-7.8-6.8V26.9L845.4,26.9z"/>
	<path fill-rule="evenodd" clip-rule="evenodd" fill="#FFFFFF" d="M800.1,52.4c-0.5-16.5,11.3-25.3,26.7-25.5
		c14-0.2,20.2,8.5,21.2,20.5h-32.5c-0.3,10.4,6.2,20.2,14,20.5c6.3,0.3,11.8-0.3,19-10.6l1.5,1.5c-2.6,8.1-9.9,15.9-24,16
		C815.8,74.9,800.6,68.3,800.1,52.4L800.1,52.4z M816,42.9h16.9c0.3-6.6-3.5-11.8-7.8-11.8C820.8,31.1,816.4,35.8,816,42.9L816,42.9
		z"/>
	<path fill="#FFFFFF" d="M690.9,26.9v11h0.2c4.3-7.4,10.2-11,17.2-11c4.4,0,8.1,1.5,11.1,4.5c3,3,4.5,7,4.5,11.9v19.7
		c0,2.8,0.4,6,1.8,7c1.2,0.9,1.9,1.3,5.2,1.7v2.1h-27.5v-2.1c2.3-0.1,4-0.5,5.3-1.7c1.4-1.3,1.8-4,1.8-6.4V45c0-3.4-0.7-6-2.2-7.9
		c-1.4-1.9-3.5-2.8-6.1-2.8c-4.6,0-8.5,2.6-11.3,7.9v21.1c0.1,3.5,0.3,5.7,2.2,7.4c1.1,0.9,2.1,1.3,4.6,1.5v1.8h-27.1v-1.9
		c1.4-0.1,3.3-0.3,4.4-1.3c1.9-1.7,1.9-4.3,1.9-6.5V38.8c0.1-5.8-0.3-7.2-1.5-8.3c-1.2-1.2-3-1.5-5.9-1.5v-2H689H690.9z"/>
	<path fill="#FFFFFF" d="M749.3,26.9v37.4c-0.2,6.3,2.5,7.4,7.7,7.7v1.9h-29.1V72c2.8-0.2,4.6-0.7,5.7-1.8c1.6-1.6,1.6-4,1.6-6.9
		V39.2c0-2.8,0.2-6.9-0.9-8c-1.1-1.1-1.9-2.4-7-2.3v-2L749.3,26.9z M733.9,6.6c0-10.1,16.5-10.1,16.5,0
		C750.4,16.9,733.9,16.8,733.9,6.6"/>
	<path fill="#FFFFFF" d="M807.1,27v2c-2.3,0.2-4.2,1.1-5.9,2.7c-1.7,1.6-3.4,4.2-5.1,7.8l-16.7,34.4h-2.6l-17.3-35.2
		c-1.9-3.6-3.6-6.1-5.2-7.5c-1.6-1.3-3.7-2.1-6.2-2.2v-2h28.8v2c-2.9,0.5-4.4,1.9-4.4,4.1c0,0.9,0.3,1.9,0.9,3L784,56.9l8.2-16.6
		c1.3-2.5,1.9-4.6,1.9-6.4c0-3.1-1.9-4.7-5.7-5v-2H807.1z"/>
	<path fill="#FFFFFF" d="M891.7,72.3V57.6h2.1c4.7,9.2,10.4,13.9,17,13.9c2.3,0,4.2-0.6,5.9-1.9c1.6-1.2,2.5-2.8,2.5-4.5
		c0-1.9-0.7-3.5-2.2-4.9c-1.5-1.4-4.8-3-9.8-4.8c-6.4-2.3-10.6-4.5-12.6-6.7c-2-2.2-3-4.9-3-8c0-3.8,1.5-7,4.6-9.6
		c3.1-2.6,7-3.9,11.9-3.9c0,0,11.6,0.3,17.5,3.1v10.7h-2.1c-1.4-3.3-3.4-6-6-7.8c-2.6-1.9-5.4-2.8-8.5-2.8c-2.2,0-4.1,0.5-5.6,1.4
		c-1.5,0.9-2.3,2.1-2.3,3.5c0,1.4,0.6,2.6,1.9,3.7c1.3,1.1,4.1,2.3,8.5,3.9c6.8,2.4,11.3,4.9,13.6,7.4c2.3,2.5,3.4,5.6,3.4,9.3
		c0,4.3-1.7,7.9-5.2,10.8c-3.5,2.9-7.4,4.7-11.8,4.7C911.4,74.8,902.2,75.1,891.7,72.3"/>
	<path fill="#FFFFFF" d="M651.3,73.8v-8.4c-3.8,3.9-7.1,6.5-9.9,7.9c-2.8,1.4-6.2,2.1-10.1,2.1c-6.5,0-11.6-1.9-15.5-5.7
		c-3.8-3.8-5.7-8.8-5.7-15.2v-33c0-2.8,0.2-5.5-1.3-7.2c-1-1.1-3.7-1.8-5.8-1.7l0-1.8h21.5l0,46.3c0,3.8,1,6.9,3.1,9
		c2.1,2.2,4.9,3.3,8.5,3.3c5.1,0,9.8-2.9,15.3-8.7V21.6c0.1-5.7-0.5-6.2-1.5-7.3c-1-1.1-3.9-1.6-5.7-1.5v-1.8H665l0,52.2
		c-0.1,4.2,0.4,5.9,1.5,7.1c1.1,1,2.8,1.6,6.2,1.8v1.9H651.3z"/>
	<path fill-rule="evenodd" clip-rule="evenodd" fill="#FFFFFF" d="M543.1,52.4c-0.5-16.5,11.3-25.3,26.7-25.5
		c14-0.2,20.2,8.5,21.2,20.5h-32.5c-0.3,10.4,6.2,20.2,14,20.5c6.3,0.3,11.8-0.3,19-10.6l1.5,1.5c-2.6,8.1-9.9,15.9-23.9,16
		C558.9,74.9,543.6,68.3,543.1,52.4L543.1,52.4z M559.1,42.9H576c0.3-6.6-3.5-11.8-7.8-11.8C563.9,31.1,559.5,35.8,559.1,42.9
		L559.1,42.9z"/>
	<path fill-rule="evenodd" clip-rule="evenodd" fill="#FFFFFF" d="M531.3,5.2l1.9,0.6l0,21.2l14.1,0l0,4.7l-14.1,0l0,26.4
		c0,9.7,7.5,11.3,13.4,4.6c0-0.5,1.6,2.1,1.7,1.7c-4.4,8.9-12.7,13-21.7,9.3c-4.5-1.9-8.9-6.2-8.9-13.7V31.7h-6.1l0-4.7
		C521.3,24.5,529.2,18.6,531.3,5.2L531.3,5.2z"/>
	<path fill-rule="evenodd" clip-rule="evenodd" fill="#FFFFFF" d="M440.3,5.9l-0.1,20.8c10.5-4.3,13.9-8.3,16.4-21.5l2,0.5l0,21.2
		h14.1l-0.1,4.7h-14.2l-0.1,25.2c0,7.6,3.8,12.2,12.7,7.7l1.3,2.9c-3.4,6.2-11.3,7.8-16.5,7.4c-8.4-0.5-12.4-7.2-12.4-16.5V31.6
		l-5.4,0.1C438,18,431.3,6.1,421,6.3c-5,0.1-13.2,3.9-13.6,12c-0.2,3.7,0.9,5.9,4.4,8.7l21.8,17.1c5.2,4.1,11.4,15.5,7.8,27.5
		c-3,9.8-15.5,15.5-25.3,15.9c-10.4,0.4-20.6-5.6-26-15.6l2.5-1.4c3.8,6.2,13,12.1,22,9.9c10-2.4,14.6-17.6,4.2-26.2L400,38.9
		c-12.8-10.5-8.7-27.7,5.1-33.7C411,2.6,426,0,440.3,5.9L440.3,5.9z"/>
	<path fill-rule="evenodd" clip-rule="evenodd" fill="#FFFFFF" d="M496.8,49.7l0,11.1c0,4.7-2.3,7.6-6.7,7.6c-5,0-7.3-4.1-7.1-8
		c0.1-2.7,1.4-5,3.5-5.9L496.8,49.7L496.8,49.7z M472.5,44.3C473.3,32,483.9,27,492.8,27c8.1,0,17.6,5.6,17.6,13.2v23.3
		c0,4,1.9,5.7,5.5,3.9c-1.3,4.4-5.7,7.5-9.3,7.6c-4,0.1-7.5-2.1-9.5-7.2c-4.5,4.5-9.5,6.9-14.9,7.1c-8.5,0.3-12.2-6.2-12.4-11.5
		c-0.2-5.5,3-10.1,9.3-12.1l15.3-4.6c3.8-1.2,2.7-7.4-2.2-9.5C484.6,34,477.4,37.2,472.5,44.3L472.5,44.3z"/>
	<path fill-rule="evenodd" clip-rule="evenodd" fill="#FFFFFF" d="M969.6,5.2l1.9,0.6l0,21.2l14.1,0l0,4.8l-14.2,0l0,26.4
		c0,9.7,7.6,11.3,13.4,4.6c0-0.5,1.6,2.1,1.8,1.7c-4.4,8.9-12.7,13.1-21.8,9.3c-4.5-1.9-8.9-6.3-8.9-13.8V31.6h-6.1l0-4.7
		C960,25.5,967.5,18.5,969.6,5.2L969.6,5.2z"/>
	<path fill="#FFFFFF" d="M1017.8,26.9v2.2c4.1,0.8,6.1,2.8,6.1,6.1c0,2.3-0.9,5.3-2.7,9.2l-6.9,15.5l-10.7-21.2
		c-1.4-2.7-2-4.7-2.1-6.1c0-2,1.6-3.2,4.8-3.6v-2.2h-31v2.2c3.1,0.8,5.5,1.8,7.1,3.1c1.6,1.3,3.3,3.9,5.2,7.7l18.7,37.6
		c-2.3,5-4.6,8.7-6.9,11.1c-3.1,3.2-6.9,4.9-11.4,4.9c-2.1,0-4.4-0.4-6.8-1.1l-3.1,14.5c1.2,0.2,2.7,0.2,4.3,0.2
		c5.3,0,9.5-1.2,12.8-3.6c3.2-2.4,6.2-6.5,8.8-12.4l22.7-49.5c2.1-4.6,3.9-7.6,5.3-9c1.4-1.4,3.7-2.5,6.9-3.3v-2.2H1017.8z"/>
</g>
</svg>
