<?xml version="1.0" encoding="utf-8"?>
<!-- Generator: Adobe Illustrator 18.1.1, SVG Export Plug-In . SVG Version: 6.00 Build 0)  -->
<svg version="1.1" id="Layer_1" xmlns="http://www.w3.org/2000/svg" xmlns:xlink="http://www.w3.org/1999/xlink" x="0px" y="0px"
	 viewBox="0 0 800 600" enable-background="new 0 0 800 600" xml:space="preserve">
<g>
	<g>
		<g>
			<path fill="#FFFFFF" d="M111,414.5l8.2-4.5l6.8,12.4l-31.3,17.2L88,427.2l7.8-4.3l-9.3-17l-23.1,12.7l9.3,17l7.8-4.3l6.8,12.4
				l-31.4,17.3l-6.8-12.4l8.2-4.5L33.1,400l-8.2,4.5l-6.7-12.3L49.5,375l6.7,12.3l-7.8,4.3l8.4,15.3l23.1-12.7l-8.4-15.3l-7.8,4.3
				L57,370.9l31.3-17.2l6.8,12.3l-8.2,4.5L111,414.5z"/>
			<path fill="#FFFFFF" d="M137.8,329.5c6.7-3.3,9.8-3.7,13.4-2.4c5.6,1.9,10.6,7.5,21.2,29.2c10.5,21.5,11.9,29,9.9,34.7
				c-1.2,3.6-3.4,5.8-10.2,9.1l-23.7,11.6c-6.6,3.2-9.8,3.7-13.4,2.4c-5.7-2-10.7-7.6-21.2-29.2c-10.6-21.6-11.9-29.1-9.9-34.7
				c1.2-3.6,3.5-5.8,10.2-9.1L137.8,329.5z M142.2,397.2c1,0.4,2,0.2,5.1-1.4l13.4-6.5c3-1.5,3.8-2.1,4.1-3.1
				c0.5-1.2-0.4-4.1-9-21.9c-8.7-17.9-10.4-20.2-11.7-20.7c-0.9-0.3-1.9-0.1-4.9,1.4l-13.4,6.5c-3.1,1.5-3.8,2.1-4.2,3.1
				c-0.4,1.3,0.4,4.1,9.1,22C139.3,394.5,141,396.8,142.2,397.2z"/>
			<path fill="#FFFFFF" d="M193.6,321.9l18.6,43.9l6.5-2.7l5.5,13l-29.9,12.7l-5.5-13l8.7-3.7l-19.6-46.3l-8.7,3.7l-5.5-12.9
				l33.6-14.2c3-1.3,4.3-1,6.3,1.9l29.7,41.5l1.2-0.5l-9.2-50.2c-0.7-3.4,0-4.5,3-5.8l33.1-14l5.5,12.9l-8.7,3.7l19.6,46.3l8.7-3.7
				l5.5,13l-31.1,13.2l-5.5-13l6.4-2.7l-18.6-43.9l-1.4,0.6l9.2,58.8c0.5,3.3,0,4.4-2.8,5.5l-11.4,4.8c-2.7,1.1-3.9,0.8-5.9-1.9
				l-35.8-47.6L193.6,321.9z"/>
			<path fill="#FFFFFF" d="M272.9,286.2l-4.8-13.2l61.7-22.4l8.9,24.5l-14.7,5.4l-4.2-11.5l-21.7,7.9l6,16.6l17.6-6.4l4.5,12.4
				l-17.6,6.4l6.7,18.4l22.2-8.1l-4.7-12.8l14.7-5.4l9.5,26l-62.2,22.6l-4.8-13.3l8.8-3.2L281.7,283L272.9,286.2z"/>
			<path fill="#FFFFFF" d="M382,316.1c-7,2.2-10.2,2.2-13.6,0.4c-5.3-2.8-9.5-9.1-16.7-31.9c-7.3-22.9-7.6-30.5-4.8-35.7
				c1.7-3.4,4.3-5.3,11.4-7.5l24.5-7.8c6.6-2.1,10.6-2.4,13.7-0.8c4.9,2.5,7.9,8.2,12.6,22.2l-16.5,5.3c-3.1-9.1-4.2-11.2-5.3-11.8
				c-0.8-0.4-1.9-0.3-4.9,0.6l-14.2,4.5c-3.3,1.1-4.1,1.5-4.6,2.4c-0.5,1.2-0.2,4.1,5.8,23.1c6,18.9,7.4,21.5,8.5,22.1
				c1,0.5,1.9,0.5,5.2-0.6l14.2-4.5c3.1-1,3.8-1.6,4.3-2.4c0.6-1.1,0.3-2.9-2.8-13.5l16.5-5.3c4.4,14.7,5.4,21.1,2.8,26
				c-1.6,3.3-5.1,5.4-11.7,7.5L382,316.1z"/>
			<path fill="#FFFFFF" d="M455.3,212.8c7.2-2,10.3-1.8,13.6,0.1c5.2,2.9,9.1,9.4,15.4,32.6c6.3,23.1,6.3,30.7,3.3,35.9
				c-1.9,3.3-4.4,5-11.7,7l-25.5,6.9c-7.1,1.9-10.3,1.8-13.6-0.1c-5.2-3-9.1-9.5-15.4-32.6c-6.3-23.2-6.3-30.8-3.3-35.9
				c1.9-3.3,4.5-5.1,11.7-7L455.3,212.8z M446.9,280.2c1,0.6,1.9,0.5,5.2-0.4l14.4-3.9c3.2-0.9,4.2-1.4,4.6-2.3
				c0.7-1.1,0.4-4.1-4.8-23.2c-5.2-19.2-6.4-21.8-7.6-22.5c-0.8-0.5-1.9-0.4-5.1,0.5l-14.4,3.9c-3.4,0.9-4.2,1.4-4.7,2.2
				c-0.6,1.2-0.4,4.1,4.8,23.3C444.6,277,445.8,279.5,446.9,280.2z"/>
			<path fill="#FFFFFF" d="M511.5,215.8l10,46.6l6.9-1.5l3,13.8l-31.8,6.8l-3-13.8l9.2-2l-10.6-49.2l-9.2,2l-2.9-13.7l35.7-7.7
				c3.2-0.7,4.4-0.1,5.8,3l21.4,46.4l1.3-0.3l0.4-51.1c0-3.4,0.9-4.4,4.1-5.1l35.1-7.5l2.9,13.7l-9.2,2l10.6,49.2l9.2-2l3,13.8
				l-33.1,7.1l-3-13.8l6.8-1.5l-10-46.6l-1.5,0.3l-2,59.5c-0.1,3.3-0.8,4.3-3.8,4.9l-12.2,2.6c-2.8,0.6-4,0.1-5.4-3l-26.3-53.5
				L511.5,215.8z"/>
			<path fill="#FFFFFF" d="M641.1,239.4l2.3,13.9l-36.6,6.1l-2.3-13.9l9.7-1.6l-8.3-49.6l-9.7,1.6l-2.3-13.8l36.6-6.1l2.3,13.8
				l-9.6,1.6l8.3,49.6L641.1,239.4z"/>
			<path fill="#FFFFFF" d="M696.3,181.2l-9,1.1l-1.8-13.9l34-4.3l1.8,13.9l-9.1,1.2l8.1,63.9l-16.6,2.1c-4.2,0.5-5.6-0.3-7.8-3.7
				l-29.7-46.2l-1.1,0.1l5.1,39.9l9.3-1.2l1.8,14l-34.5,4.4l-1.8-14l9.3-1.2l-6.3-49.9l-9.3,1.2l-1.8-13.9l27.8-3.5
				c4.1-0.5,5.5,0.3,7.8,3.7l27.3,42.8l1.1-0.1L696.3,181.2z"/>
			<path fill="#FFFFFF" d="M774.9,185.7c-0.8-7.8-1.3-9.4-2.1-10.3c-0.7-0.5-1.6-0.8-5-0.5l-15,1.2c-3.5,0.3-4.3,0.6-5.1,1.3
				c-0.9,1.2-1.1,4.7,0.4,23.9c1.5,19.1,2.2,22.7,3.3,23.7c0.8,0.7,1.8,0.9,5.2,0.6l15.5-1.2c3.1-0.2,4.2-0.6,4.9-1.4
				c0.7-0.8,1-4,0.4-11.7l-0.2-2.2l-15.6,1.2l-1-13.1l32.9-2.5l0.8,10.6c1.4,18,0.2,23.9-3.4,28.1c-2.7,3.1-6.4,4.4-13.1,4.9l-26,2
				c-7.4,0.6-10.5-0.2-13.3-2.7c-4.6-3.9-7.1-11-9-34.9c-1.9-24-0.4-31.4,3.5-35.9c2.5-2.9,5.4-4.1,12.8-4.7l25.8-2
				c6.9-0.5,11,0.3,13.6,2.4c4.2,3.5,5.7,7.8,7,21.8L774.9,185.7z"/>
		</g>
		<g>
			<path fill="#FFFFFF" d="M22.3,362.6c-0.1,1-0.9,2.4-2.1,4l-4.4,5.8c-0.5,0.6-0.9,1.4-0.9,1.8c-0.1,0.5,0,1.1,0.7,2.2L16,377
				l7.9-4.7l-2.2-3.6l4.3-2.6l4.4,7.4l-16.8,10.1l-2.2-3.7c-1.8-3-2.2-4.4-2-6c0.2-1.1,0.7-2.1,1.8-3.6l4.5-5.9c0.8-1,0.9-1.4,1-1.7
				c0-0.4,0-0.8-0.7-1.8c-0.6-1-1-1.4-1.4-1.5c-0.3-0.1-0.8,0.1-1.5,0.5l-3.3,2c-0.9,0.5-1.1,0.8-1.2,1.1c-0.1,0.3,0.1,1,1.4,3.3
				l-4.6,2.8c-2.5-4.1-2.8-5.6-2.5-7.1c0.3-1,1.2-2.1,3.1-3.2l6.5-3.9c1.8-1,3-1.3,4-1c1.5,0.4,2.7,1.6,4.3,4.2
				C22.3,360.5,22.5,361.4,22.3,362.6z"/>
			<path fill="#FFFFFF" d="M36.5,342.6c2,0.5,3.7,2.2,7.4,8.6c3.7,6.4,4.3,8.8,3.7,10.7c-0.4,1.3-1.2,2.3-3.4,3.5l-6.1,3.5
				c-2.2,1.3-3.4,1.5-4.7,1.1c-2-0.5-3.7-2.3-7.4-8.6c-3.7-6.4-4.3-8.8-3.7-10.7c0.4-1.3,1.2-2.2,3.4-3.5l6.1-3.5
				C34,342.5,35.2,342.3,36.5,342.6z M37.2,364.3l3.5-2c1.1-0.6,1.3-0.9,1.4-1.3c0.1-0.4-0.2-1.4-3.3-6.8c-3.1-5.4-3.8-6.1-4.2-6.3
				c-0.4-0.1-0.7,0-1.8,0.6l-3.5,2c-1,0.6-1.3,0.9-1.4,1.3c-0.1,0.4,0.2,1.4,3.3,6.8c3.1,5.4,3.8,6.1,4.2,6.2
				C35.8,365,36.1,364.9,37.2,364.3z"/>
			<path fill="#FFFFFF" d="M62.9,350l2.2,3.9l-13.2,7.3l-2.2-3.9l4.4-2.4l-7.6-13.7l-2.9,3.2l-3.3-3l4.1-4.8l4.5-2.5l10,18.1
				L62.9,350z"/>
			<path fill="#FFFFFF" d="M75.3,342.8c0.1-0.4,0.1-1-1.1-3.2c-1.2-2.1-1.6-2.5-2-2.6c-0.3-0.1-0.8,0-1.6,0.4l-2.4,1.3
				c-1.3,0.7-2,1.4-2.8,3l-4.8,0.9l-5.4-11.9l15.5-8.3l2.2,4l-11.4,6.1l2.2,5.1l0.3-0.1c0.6-1.6,1.1-2.3,2.8-3.2l3.4-1.8
				c2-1.1,3.1-1.3,4.3-1c1.6,0.5,2.7,1.8,4.5,5.1c2.3,4.2,2.5,5.6,2.1,7.2c-0.3,1.1-1.1,2-2.9,3l-7.2,3.9c-1.8,1-3.3,1.4-4.3,1
				c-1.5-0.4-2.5-1.5-4.6-5.4l4.8-2.6c1.1,2,1.6,2.5,1.9,2.6c0.3,0.1,0.7,0,1.5-0.5l3.9-2.1C74.9,343.4,75.2,343.1,75.3,342.8z"/>
		</g>
	</g>
	<g>
		<g>
			<path fill="#D07F29" d="M270.9,240c6,3.1,11.8,6.4,17.4,9.7c-1,0.5-1.7,1.4-1.9,2.5c-0.4,2,0.8,3.9,2.8,4.3
				c2,0.4,3.9-0.8,4.3-2.8c0.1-0.3,0.1-0.6,0.1-0.8c1.2,0.7,2.3,1.5,3.4,2.2c0.6-0.4,1.2-0.8,1.8-1.1c-8.2-5.4-17.2-10.8-26.9-15.9
				c-25-13.1-48.8-22.1-66.1-28.5c-17.3-6.3-28.1-9.8-28.1-9.9c0,0,10.6,4.1,27.7,10.9C222.5,217.5,246.1,227,270.9,240z"/>
			<path fill="#D07F29" d="M327.5,206.1c-14.9-24.9-31.6-45.5-45-59.8c0.5-0.5,1-1.1,1.1-1.9c0.4-2-0.8-3.9-2.8-4.3
				c-1.3-0.3-2.5,0.1-3.3,1c-11.9-12.4-19.9-19.1-19.8-19.2c-0.1,0.1,7.7,7.2,19.3,20c-0.2,0.3-0.3,0.6-0.4,1
				c-0.4,2,0.8,3.9,2.8,4.3c0.8,0.2,1.5,0.1,2.2-0.2c12.9,14.7,29.2,35.5,44.1,60.3c6.6,10.9,12.2,21.7,17.1,32
				c0.6-0.2,1.2-0.4,1.8-0.6C339.8,228.1,334.1,217.2,327.5,206.1z"/>
			<path fill="#D07F29" d="M342.7,239.2c0,0.1,0.1,0.2,0.1,0.3c0.5-0.3,1.1-0.6,1.7-0.9c0,0,0,0,0,0
				C343.9,238.8,343.3,239,342.7,239.2z"/>
			<path fill="#D07F29" d="M356.9,204.1c-3.7-10.1-6.9-16-6.8-16c0,0,2.6,6.1,5.8,16.3c2.3,7.4,4.8,17.1,6.9,27.9
				c0.7-0.2,1.3-0.4,2-0.6C362.5,220.9,359.6,211.4,356.9,204.1z"/>
			<path fill="#D07F29" d="M362.8,232.4c0,0.1,0.1,0.2,0.1,0.4c0.7-0.3,1.3-0.5,2-0.7c0-0.1,0-0.2-0.1-0.3
				C364.1,232,363.5,232.2,362.8,232.4z"/>
			<path fill="#D07F29" d="M303.6,252.3c0.5-0.1,1-0.2,1.5-0.2c0.7-0.5,1.4-1,2.3-1.4c-3.4-2.1-6.8-4-9.8-5.4
				c-10.6-5.2-17.6-7-17.6-7.1c0,0.1,6.6,3.1,16.3,9.3C298.6,248.9,301.1,250.6,303.6,252.3z"/>
			<path fill="#D07F29" d="M267.8,202.4c-6-4.4-12-8.4-18-12c-0.5-0.9-1.3-1.6-2.4-1.8c-0.3-0.1-0.6-0.1-0.8-0.1
				c-17.6-10.3-34.5-17.4-47.9-22.2c-18.9-6.7-31-9.3-30.9-9.4c0,0.1,12,3.2,30.6,10.4c12.9,5.1,29,12.2,45.8,22.2
				c-0.5,0.5-0.9,1.1-1.1,1.9c-0.4,2,0.8,3.9,2.8,4.3c1.9,0.4,3.8-0.7,4.3-2.6c5.5,3.4,10.9,7.1,16.4,11.1
				c20.5,14.8,37.5,30.6,50.3,44.1c0.5-0.2,0.9-0.3,1.4-0.5C305.7,233.8,288.7,217.5,267.8,202.4z"/>
			<path fill="#D07F29" d="M316.8,248.2c0,0,0.1,0.1,0.1,0.1c0.4-0.2,0.9-0.4,1.3-0.6c0,0,0,0-0.1-0.1
				C317.8,247.9,317.3,248.1,316.8,248.2z"/>
			<path fill="#D07F29" d="M364.8,191c-5.8-13-11.1-20.1-10.9-20.1c-0.1,0,4.1,7.8,8.6,21c3.4,9.9,6.6,23,8.8,37.8
				c1.5-0.5,3.1-1,4.6-1.5C373.3,213.4,369.1,200.5,364.8,191z"/>
			<path fill="#D07F29" d="M371.3,229.7c0,0.2,0.1,0.4,0.1,0.6c1.1-0.4,2.4-0.7,3.7-0.9c0.3,0,0.7-0.1,1-0.2c-0.1-0.3-0.1-0.6-0.2-1
				C374.3,228.6,372.8,229.2,371.3,229.7z"/>
			<path fill="#D07F29" d="M227.9,276.4c-17.1,1.4-27.2,4.3-27.3,4.2c0,0.1,10.5-1.5,27.4-1.7c2.4-0.1,5,0,7.6,0.1c2.5-1,5-2,7.5-3
				C237.7,275.9,232.5,276,227.9,276.4z"/>
			<path fill="#D07F29" d="M221.5,247.8C221.5,247.8,221.5,247.8,221.5,247.8c-0.5,2.1,0.8,4,2.8,4.4c2,0.4,3.9-0.8,4.3-2.8
				c0,0,0,0,0,0c10.6,2.5,21.8,5.7,33.2,9.5c4.2,1.4,8.2,2.9,12.2,4.5c0.9-0.5,1.8-0.9,2.8-1.2c-4.6-1.9-9.4-3.7-14.3-5.4
				c-11.7-4-23.2-7.1-34.1-9.6c-0.4-1.1-1.4-2-2.6-2.2c-1.2-0.3-2.5,0.1-3.3,1c-16.3-3.4-31.2-5.3-43.4-6.3
				c-21.8-1.8-35.3-1.2-35.3-1.3c0,0.1,13.5,0.1,35.2,2.4C191,242.1,205.6,244.3,221.5,247.8z"/>
			<path fill="#D07F29" d="M232,160.4c-0.4,2,0.8,3.9,2.8,4.3c1.4,0.3,2.8-0.2,3.6-1.3c8.1,6.3,16.2,13.1,24.2,20.4
				c8,7.2,15.5,14.5,22.6,21.8c-1.9-0.3-3.7,0.9-4.1,2.8c-0.4,2,0.8,3.9,2.8,4.3c2,0.4,3.9-0.8,4.3-2.8c0.1-0.4,0.1-0.8,0-1.2
				c12.4,13,23.3,25.8,32.9,38c1.1-0.7,2.2-1.2,3.5-1.6c-12.3-16.6-27.1-34.4-44.8-51.9c0.3-0.4,0.5-0.8,0.6-1.3
				c0.4-2-0.8-3.9-2.8-4.3c-1.1-0.2-2.1,0-3,0.7c-2.8-2.7-5.7-5.4-8.6-8c-18.1-16.3-36.8-30.2-54.6-41.4
				c-17.9-11.2-34.8-19.8-49.4-26.2c-29.2-12.7-48.4-17.2-48.4-17.4c-0.1,0.2,18.8,5.9,47.3,19.7c20.6,9.9,45.9,24.6,71.8,44.2
				C232.4,159.4,232.1,159.8,232,160.4z"/>
			<path fill="#D07F29" d="M402.4,205.7c-0.3-0.1-0.6-0.1-0.9-0.1c-0.2-17.2-2.4-35.8-7.1-54.6c-1.7-6.9-3.7-13.6-5.9-20
				c1.1-0.4,2.1-1.4,2.3-2.7c0.4-2-0.8-3.9-2.8-4.3c-0.7-0.1-1.3-0.1-2,0.1c-2.7-7.4-5.7-14.6-8.9-21.4c0.3-0.4,0.5-0.8,0.6-1.3
				c0.4-2-0.8-3.9-2.8-4.3c-0.2,0-0.4,0-0.5-0.1c-1-2-2-4-3-5.9c-9.4-17.4-19.7-31.9-28.9-43.5c-18.7-23.2-33-34.9-32.9-35
				c-0.2,0.1,13.4,12.7,30.9,36.5c8.7,11.9,18.3,26.7,27.1,44c1.1,2.1,2.1,4.2,3.1,6.4c0,0.1-0.1,0.2-0.1,0.4
				c-0.4,1.8,0.6,3.5,2.2,4.1c6.6,14.6,12.4,30.9,16.6,48.2c3.5,14.3,5.8,28.4,6.9,41.9c-0.2-0.1-0.4-0.2-0.6-0.2
				c-2-0.4-3.9,0.8-4.3,2.8c-0.4,2,0.8,3.9,2.8,4.3c0.9,0.2,1.9,0,2.6-0.4c0.3,4.8,0.4,9.5,0.4,14.1c0,1.4-0.1,2.8-0.1,4.2
				c-0.4-0.3-0.9-0.6-1.5-0.7c-2-0.4-3.9,0.8-4.3,2.8c-0.2,0.8,0,1.5,0.3,2.1c0.5-0.1,1-0.3,1.4-0.5c0.4-0.2,0.8-0.2,1.1-0.3
				c2.3-0.7,4.7-1.5,7-2.2c0.1-1.8,0.3-3.5,0.3-5.4c0-0.6,0-1.3,0-1.9c1.7,0.1,3.3-1.1,3.7-2.9C405.6,208.1,404.4,206.2,402.4,205.7
				z"/>
			<path fill="#D07F29" d="M383.1,225.8c0,0.1,0,0.2,0,0.3c0.7-0.2,1.4-0.2,2.2-0.3c0-0.2-0.1-0.4-0.1-0.6
				C384.5,225.4,383.8,225.6,383.1,225.8z"/>
			<path fill="#D07F29" d="M384.3,218.8c-3.1-18.2-9.8-33.8-15.8-44.1c-6-10.4-11.1-16-11-16c-0.1,0,4.5,5.9,10,16.5
				c5.5,10.6,11.5,26.1,14.6,44c0.4,2.3,0.7,4.5,1,6.7c0.7-0.2,1.4-0.4,2.1-0.7C385,223.1,384.7,221,384.3,218.8z"/>
			<path fill="#D07F29" d="M197,291.2c-7.7-0.4-17.3,0.1-24.5,0.7c-0.5,0-1.1,0.1-1.6,0.1c-0.3,0-0.7,0.1-1,0.1
				c-0.7-0.7-1.4-1.5-2-2.1c-1.4-1.4-2.7-2.6-3.7-3.4c-1-0.8-1.7-1.4-2-1.5c-1-0.4,1.7,2.3,5.8,7.2c-1.4,0.1-2.9,0.2-4.3,0.4
				c-0.5,0.1-1,0.1-1.3,0.2c-2.5,0.4-5.2,1.1-6.8,2.4c-0.3,0.3-0.6,0.5-0.7,0.8c-0.2,0.3-0.3,0.6-0.3,0.9c-0.1,1.1,0.8,1.9,2,2.5
				c0.4,0.2,0.9,0.3,1.4,0.5c4.5,0.9,9.4-0.7,13.8-1.5c0.3-0.1,0.6-0.1,0.9-0.2c0.1,0.1,0.1,0.2,0.2,0.2c0.9,0,1.8,0.1,2.6,0.3
				c-0.2-0.3-0.5-0.7-0.7-1c6.8-1.5,15.2-3.3,22.3-4.2c1-0.1,2-0.2,3-0.3c0.7-0.6,1.5-1.1,2.3-1.6
				C200.7,291.4,198.9,291.3,197,291.2z"/>
			<path fill="#D07F29" d="M218.9,386.4c-0.2,0.1-0.3,0.1-0.5,0.2c-0.1,0-0.1,0.1-0.2,0.1c-1.1,0.6-2.3,1-3.6,1.4
				c-0.5,0.2-1,0.4-1.4,0.6c0,0,0,0,0,0c0,0-0.1,0-0.1,0.1c-0.4,0.2-0.9,0.3-1.3,0.5c-0.8,0.3-1.6,0.6-2.4,0.9
				c-0.1,0-0.2,0.1-0.3,0.1c-1.3,1.1-2.5,2.1-3.7,3.1c-2.4,2.1-4.7,4.2-6.7,6.1c0.2-1.4,0.4-2.8,0.5-4.1c-0.7,0.3-1.4,0.6-2.2,0.9
				c-0.1,0.9-0.2,1.7-0.3,2.6c-1.9-0.2-3.6,1-4,2.8c-0.2,1,0,2,0.5,2.8c-7,6.6-10.8,10.6-10.9,10.6c0,0,4.3-3.6,11.8-9.6
				c0.4,0.3,0.8,0.5,1.3,0.6c0,0,0.1,0,0.1,0c-2.8,15.8-7.9,32.3-15.2,48.1c-10.4,22.8-24.6,44.1-38.5,62.1
				c-13.5,17.4-26.7,31.9-36.4,42.4l0.3,0.1c9.8-10.4,23.1-24.7,36.7-42c14.1-17.9,28.6-39.1,39.3-62c7.6-16,12.9-32.8,15.9-48.9
				c1.1-0.4,2-1.4,2.3-2.6c0.2-0.8,0.1-1.5-0.2-2.2c2.3-1.8,4.7-3.7,7.3-5.7C210.6,392.6,214.6,389.5,218.9,386.4z"/>
			<path fill="#D07F29" d="M297.8,354.7c-0.2,0.1-0.5,0.3-0.7,0.4c-0.6,0.5-1.3,1-1.9,1.4c-1.9,1.1-4.2,1.9-6.6,2.3
				c-17.3,12.8-31.4,26.3-41.8,36c-10.9,10.4-17.7,16.8-17.7,16.7c0,0,7.1-6,18.4-15.9c11.3-9.9,26.7-23.9,45.3-37.3
				c1.7-1.3,3.5-2.5,5.2-3.6C298,354.7,297.9,354.7,297.8,354.7z"/>
			<path fill="#D07F29" d="M603.9,325.6c-11.3-4.6-25.2-9-40.9-12.4c-15.8-3.4-33.4-5.6-52-6.6c-12.1-0.6-23.8-0.6-35-0.4
				c0.3-1.9-0.9-3.7-2.8-4.1c-2-0.4-3.9,0.8-4.3,2.8c-0.1,0.5-0.1,1,0,1.5c-9.1,0.4-17.7,1-25.8,1.8c-4.9,1.3-9.8,2.5-14.7,3.8
				c-0.8,0.5-1.7,1-2.6,1.4c1.3-0.1,2.5-0.3,3.8-0.4c0,0.1,0,0.1-0.1,0.2c-0.4,2,0.8,3.9,2.8,4.3c2,0.4,3.9-0.8,4.3-2.8
				c0.2-0.8,0.1-1.6-0.3-2.3c21.2-1.6,46.9-2,74.4-0.8c18.3,0.9,35.7,2.8,51.4,5.7c15.6,2.8,29.5,6.6,40.9,10.6
				c22.8,7.9,35.7,15.9,35.7,15.8C638.7,343.8,626.5,334.8,603.9,325.6z"/>
			<path fill="#D07F29" d="M617.3,430.1c-9.9-10.4-22.4-22.3-37.7-33.7c-7.6-5.7-16-11.3-25-16.5c-4.5-2.6-9.2-5.1-14-7.4
				c-4.7-2.3-9.7-4.7-14.7-7c-20.1-8.9-39.7-16.1-58-21.6c-14-4.2-27.1-7.4-38.9-9.9c0.6-0.5,1.1-1.2,1.3-2.1c0.2-1.1,0-2.1-0.6-2.9
				c0.4,0.2,0.8,0.4,1.2,0.5c2,0.4,3.9-0.8,4.3-2.8c0.1-0.4,0.1-0.7,0.1-1c11.3,1,23.6,2.8,36.3,5.1c5.9,1.1,11.7,2.3,17.3,3.6
				c0.5,0.4,1,0.7,1.6,0.8c0.6,0.1,1.2,0.1,1.7-0.1c19.1,4.5,36,9.7,49,14.1c17.5,5.9,28.2,10.2,28.2,10.2c0,0-10.2-5.4-27.3-12.5
				c-12.4-5.1-28.6-11.1-47.3-16c-0.3-1.3-1.3-2.5-2.8-2.8c-1.4-0.3-2.7,0.2-3.5,1.2c-5.2-1.3-10.5-2.4-16-3.4
				c-11-2-21.6-3.4-31.6-4.2c0.2-0.3,0.3-0.6,0.4-0.9c0.4-2-0.8-3.9-2.8-4.3c-2-0.4-3.9,0.8-4.3,2.8c-0.2,0.7-0.1,1.5,0.2,2.1
				c-0.5,0-1.1-0.1-1.6-0.1c-2.1-0.1-4.1-0.1-6.2-0.2c-0.5-0.4-1-0.7-1.7-0.9c-1.2-0.3-2.4,0.1-3.2,0.9c-4.1,0-8,0.2-11.7,0.4
				c0-0.1,0-0.1,0.1-0.2c-2.2,0.3-4.4,0.4-6.6,0.4c0,0.1,0,0.1,0.1,0.2c-0.1,0-0.1,0-0.2,0c0-0.1-0.1-0.1-0.1-0.2
				c-1.4,0-2.8,0-4.2,0c-2.4,1.2-5.2,1.9-8.5,1.9c-0.4,0-0.8,0-1.1-0.1c-0.1,0-0.1,0-0.2,0c-0.4,0.1-0.7,0.1-1.1,0.2
				c-1.4,0.7-2.9,1.4-4.4,2c3.8-0.4,8.3-0.7,13.4-1c0.5,0.5,1.1,0.9,1.8,1c1.4,0.3,2.7-0.2,3.6-1.2c5.5-0.1,11.6-0.1,18.2,0.1
				c0.4,1.2,1.4,2.2,2.7,2.5c1.8,0.4,3.5-0.6,4.1-2.2c0.2,0,0.4,0,0.7,0c0,0,0,0,0,0c-0.2,1.1,0,2.1,0.6,2.9
				c-0.4-0.2-0.8-0.4-1.2-0.5c-2-0.4-3.9,0.8-4.3,2.8c-0.2,0.9,0,1.8,0.4,2.5c-1.6-0.3-3.2-0.6-4.7-0.9c-14.8-2.8-26.7-4.4-34.6-5.4
				c-0.4-0.2-0.9-0.4-1.3-0.6c-0.7,0.3-1.4,0.5-2.2,0.7c0.9,0.2,1.9,0.3,3,0.5c1.4,0.8,3,1.7,4.7,2.7c-6.2-1.2-10.9-1.8-13.8-2.1
				c-0.4,0.1-0.7,0.2-1.1,0.3c1.8,1.4,4.5,3.5,7.9,6.4c0.1,1.6,1.2,2.9,2.8,3.3c0.3,0.1,0.6,0.1,0.9,0.1c3.7,3.5,8,7.7,12.5,12.8
				c3.7,4.2,7.5,9,11.2,14.3c1.9,2.7,3.7,5.5,5.6,8.5c1.7,2.9,3.4,6.2,5.1,9.4c1.2,2.4,2.4,4.8,3.7,7.3c-1,0.5-1.9,1.4-2.1,2.6
				c-0.4,2,0.8,3.9,2.8,4.3c0.9,0.2,1.7,0,2.5-0.4c4.4,9.4,8.6,19.5,12.4,30.1c11.8,32,18.2,62.3,21.8,84.4c3.6,22.1,4.5,36,4.6,36
				c-0.1,0,0.2-13.9-2.1-36.4c-2.3-22.4-7.7-53.4-19.6-85.8c-5.9-16.2-12.9-31.2-20.2-44.2c-1.9-3.3-3.6-6.4-5.6-9.5
				c-1.7-2.6-3.5-5.1-5.3-7.4c0.8-0.5,1.5-1.3,1.7-2.3c0.4-2-0.8-3.9-2.8-4.3c-1.3-0.3-2.5,0.2-3.4,1c-2.8-3.4-5.6-6.5-8.4-9.3
				c-1.6-1.7-3.3-3.2-4.8-4.7c1,0.1,1.9-0.2,2.7-0.8c3.8,2.9,8.6,6.7,14,11.3c14.3,12.2,32.3,31.1,48.9,54.5
				c16.8,23.2,29.8,45.8,38.7,62.4c8.9,16.6,14,27.1,14,27.1c0,0-4.6-10.7-13-27.6c-8.5-16.8-21-39.8-37.9-63.2
				c-16.8-23.5-35.3-42.2-50-54c-5.5-4.5-10.4-8.1-14.3-10.8c0.4-0.5,0.8-1,0.9-1.7c0.4-2-0.8-3.9-2.8-4.3c-1.7-0.4-3.4,0.5-4.1,2
				c-1.9-1.2-3.2-2-4-2.5c0.4-0.4,0.7-1,0.8-1.6c0.3-1.4-0.2-2.7-1.2-3.5c2.2,0.6,4.7,1.4,7.3,2.2c4.8,2.9,10.2,6.2,16.2,10.1
				c8.1,5.2,17.3,11.4,26.9,18.5c-1.5,0.2-2.8,1.3-3.2,2.8c-0.4,2,0.8,3.9,2.8,4.3c2,0.4,3.9-0.8,4.3-2.8c0.1-0.5,0.1-1,0-1.4
				c16,12.1,33.2,26.7,49.7,44c7.8,8.1,15.1,16.3,21.7,24.5c-0.3,0.4-0.5,0.8-0.6,1.3c-0.4,2,0.8,3.9,2.8,4.3
				c0.8,0.2,1.5,0.1,2.2-0.2c15.2,19.4,26.9,38.1,35.1,53.7c12.4,23.6,17.6,39.5,17.8,39.4c-0.1,0.1-4.1-16.1-15.5-40.5
				c-11.3-24.3-31.1-56.5-59.8-86.1c-9.4-9.8-19.1-18.7-28.8-26.7c0.4-0.4,0.8-1,0.9-1.6c1.2-0.4,2.2-1.4,2.5-2.7
				c0.4-2-0.8-3.9-2.8-4.3c-1.9-0.4-3.8,0.8-4.3,2.6c-0.8,0.3-1.5,0.8-2,1.5c-17.5-13.9-34.5-24.9-48.6-32.9
				c-3.3-1.9-6.3-3.6-9.3-5.2c0.1,0,0.3,0.1,0.4,0.1c0.4,0.3,0.8,0.5,1.3,0.6c0.2,0,0.4,0,0.6,0.1c13.8,4.9,30.6,12.1,47.7,22
				c0.9,0.5,1.8,1,2.6,1.6c-0.1,0.2-0.2,0.5-0.3,0.7c-0.4-1.1-1.4-1.9-2.6-2.1c-2-0.4-3.9,0.8-4.3,2.8c-0.4,2,0.8,3.9,2.8,4.3
				c1.9,0.4,3.8-0.8,4.3-2.7c0.4,1.1,1.4,1.9,2.6,2.1c1.5,0.3,2.9-0.3,3.7-1.4c16.9,10.7,30.8,22.1,40.6,31.5
				c11.5,11,17.7,18.7,17.7,18.7c-0.1,0.1-5.2-8.4-15.9-20.4c-10.6-12-27.3-27.1-48.7-39.4c-15.9-9.2-31.7-15.5-45.3-19.6
				c3.1,0.8,7.5,1.9,12.8,3.4c11,3.2,26.1,8,41.7,15.8c31.4,15.4,51.9,35.9,52,35.6c0,0-4.8-5.3-13.5-12.8
				c-8.7-7.5-21.6-17-37.5-24.8c-15.8-7.8-31.2-12.2-42.4-14.9c-6.2-1.4-11.1-2.4-14.3-2.9c0-0.1,0.1-0.2,0.1-0.4
				c0.1-0.7,0.1-1.3-0.1-2c3,0.7,6.1,1.4,9.4,2.1c13.9,3.3,30.4,7.6,48.3,13.5c17.9,5.8,37.3,13.3,57.2,22.1c5,2.2,9.7,4.5,14.6,6.9
				c4.8,2.3,9.4,4.6,13.8,7.1c8.9,5,17.2,10.3,24.9,15.7c15.3,10.9,28.1,22.1,38.4,32c20.5,19.9,31.5,33.9,31.6,33.8
				C647,465.8,637,451.1,617.3,430.1z M381.6,333.5c-0.8-0.6-1.6-1.2-2.3-1.7c-1.9-1.4-3.6-2.5-4.9-3.3c-0.1-0.1-0.1-0.1-0.2-0.2
				c2.2,0.5,5.7,1.3,10.3,2.6C383.2,331.1,382,332.1,381.6,333.5z M387.9,336.8c0.7,0.5,2,1.4,3.9,2.7c-0.1,0.2-0.1,0.3-0.2,0.5
				c-0.1,0.5-0.1,1,0,1.5c-1.6-1.4-3.2-2.7-4.7-3.9C387.3,337.4,387.6,337.1,387.9,336.8z M402,332.9c0,0.1,0,0.1,0,0.2
				c-1.6-0.4-3.2-0.8-4.7-1.1c-1.6-0.4-3.2-0.7-4.7-1c-2.1-1.1-4.1-2.1-5.9-3c4.5,0.8,9.9,1.9,16.2,3.2
				C402.5,331.6,402.1,332.2,402,332.9z"/>
			<path fill="#D07F29" d="M349.3,337.5c-2,0.6-4,0.8-5.9,0.7c-22.6,17.3-43.8,36.6-64.6,56.1c-3.2,3-6.4,6.1-9.6,9.2
				c-0.3-0.2-0.7-0.4-1.1-0.5c-2-0.4-3.9,0.8-4.3,2.8c-0.2,0.9,0,1.8,0.4,2.5c-0.1,0.1-0.3,0.3-0.4,0.4c-1.9-0.2-3.6,1-4,2.8
				c-0.1,0.4-0.1,0.8,0,1.2c-1.7,1.7-3.4,3.4-5.1,5.1c-3.6,3.6-7.2,7.3-10.9,10.9c-5.3,5.3-10.6,10.6-15.8,16
				c-37.1,37.8-72.4,77.1-106.8,117.3l8.8,1.9c31.1-34.7,62.7-68.6,95.1-102.4c5.6-5.8,11.1-11.6,16.7-17.3
				c5.2-5.6,10.4-11.2,15.6-16.6c5.3-5.5,10.7-10.9,16.2-16.4c24.3-24,49.7-45.9,75.2-68.7c-0.1,0-0.1,0-0.1-0.1
				c0.1,0,0.1,0,0.1,0.1c1.2-1.1,2.4-2.2,3.7-3.3c0-1.1,0-2.1,0.1-3C351.6,336.7,350.5,337.2,349.3,337.5z"/>
			<path fill="#D07F29" d="M289,258.2c-19.1-11.6-41-23.1-65.4-32.7c-22.6-9-45-15.5-65.6-19.7c-20.6-4.3-39.6-6.4-55.4-7.3
				c-8-0.4-15.3-0.6-21.6-0.6c0.2,0.5,0.3,1.1,0.4,1.6c6.2,0.3,13.3,0.8,21,1.5c31.5,2.9,74.7,11.3,119.4,29.2
				c22.9,9.1,43.8,19.5,62.3,30c0.2,0,0.4-0.1,0.5-0.1c0.2-0.1,0.4-0.1,0.5-0.2C286.4,259.2,287.6,258.6,289,258.2z"/>
			<path fill="#D07F29" d="M285.2,259.8c-0.2,0.1-0.4,0.1-0.5,0.2c0.1,0,0.2-0.1,0.3-0.1C285.1,259.9,285.1,259.9,285.2,259.8z"/>
			<path fill="#D07F29" d="M245.8,54.3c14.8,15.4,32,36.2,48.4,61.2c-0.4,0.5-0.8,1.1-0.9,1.7c-0.4,2,0.8,3.9,2.8,4.3
				c0.7,0.1,1.3,0.1,2-0.1c6.6,10.4,13,21.4,19,33c14.9,28.7,25.8,57,33.7,81.8c1.1-0.6,2.2-1.1,3.4-1.4
				c-7.2-25.1-17.5-53.7-32.6-82.7c-11.2-21.6-23.9-41.1-36.7-57.9c-12.8-16.8-25.7-30.7-37.1-41.8c-22.9-22.1-39.4-33.1-39.2-33.2
				C208.3,19.5,223.9,31.5,245.8,54.3z"/>
			<path fill="#D07F29" d="M423.9,200.1c0.9-4.8,1.6-9.5,2-14.1c0.5,0.8,1.3,1.5,2.4,1.7c2,0.4,3.9-0.8,4.3-2.8
				c0.4-2-0.8-3.9-2.8-4.3c-1.4-0.3-2.8,0.2-3.6,1.3c0.6-10.8-0.1-20.6-1.4-28.3c-2.1-11.8-5.1-18.6-5-18.6c-0.1,0,2.4,7,3.9,18.8
				c1.6,11.7,1.5,28.2-1.9,46c-1,5.4-2.3,10.5-3.6,15.5c0.8-0.2,1.6-0.5,2.3-0.7C421.7,209.9,422.9,205.2,423.9,200.1z"/>
			<path fill="#D07F29" d="M418.1,215.2c-0.1,0.2-0.1,0.5-0.2,0.7c0.7-0.3,1.5-0.5,2.3-0.7c0.1-0.2,0.1-0.5,0.2-0.7
				C419.6,214.7,418.9,215,418.1,215.2z"/>
			<path fill="#D07F29" d="M498.7,190.9c13.7-8.8,22.5-13.8,22.4-13.8c0,0-9,4.5-23,12.9c-3.2,1.9-6.7,4.1-10.4,6.5
				c1.3-0.3,2.7-0.6,4-0.9C494.2,193.9,496.6,192.3,498.7,190.9z"/>
			<path fill="#D07F29" d="M478,173.4c0,1.6,1.2,3.1,2.9,3.5c2,0.4,3.9-0.8,4.3-2.8c0.4-2-0.8-3.9-2.8-4.3c-0.5-0.1-1-0.1-1.5,0
				c1.1-1.4,2.2-2.7,3.2-4c11.6-14.2,19.4-22.6,19.3-22.6c0,0-8.6,7.5-21.2,20.9c-10.4,11.3-24,26.4-38.4,43.7
				c2.7-0.7,5.4-1.5,8.1-2.2C461.6,193.7,470.5,182.7,478,173.4z"/>
			<path fill="#D07F29" d="M443.9,207.9c-0.4,0.5-0.9,1-1.3,1.6c1-0.5,2.1-1,3.3-1.4c1.8-0.7,3.6-1.2,5.4-1.5c0.3-0.3,0.5-0.6,0.8-1
				C449.3,206.4,446.6,207.1,443.9,207.9z"/>
			<path fill="#D07F29" d="M335.5,370.4c2.8-3,5.4-6,7.8-8.9c0.5,0.8,1.3,1.5,2.3,1.7c2,0.4,3.9-0.8,4.3-2.8
				c0.4-1.8-0.6-3.6-2.3-4.2c8.6-10.5,13.8-18.3,13.7-18.3c0,0-6.4,7.6-16,18.2c-1.3,0.3-2.3,1.4-2.6,2.7c0,0.1,0,0.1,0,0.2
				c-0.1,0.2-0.3,0.3-0.4,0.5c0,0,0,0,0,0c0.4-2-0.8-3.9-2.8-4.3c-2-0.4-3.9,0.8-4.3,2.8c-0.4,2,0.8,3.9,2.8,4.3
				c0.7,0.1,1.4,0.1,2-0.1c-2,2.2-4.1,4.5-6.2,6.8c-1.1,1.2-2.3,2.5-3.4,3.7c0-0.1,0.1-0.1,0.1-0.2c0.4-2-0.8-3.9-2.8-4.3
				c-2-0.4-3.9,0.8-4.3,2.8c-0.4,2,0.8,3.9,2.8,4.3c0.7,0.2,1.5,0.1,2.1-0.2c-12.6,14.2-21.3,25.7-21.3,25.7
				C307,400.6,320,387.3,335.5,370.4z"/>
			<path fill="#D07F29" d="M357,25.4c0.5,0.7,1,1.4,1.6,2.1c5.4,6.2,12.6,12.4,18,19.2c0.6,0.7,1.2,1.5,1.8,2.3
				c8.6,10.7,17.2,27,21.9,41.1c4.9,14.1,6.8,25.4,6.9,25.4c-0.1,0-0.9-11.4-4.6-26.1c-3.5-14.6-10.9-32.1-19.1-44.1
				c-0.6-0.9-1.2-1.8-1.8-2.6c-2.8-3.9-5.8-7.7-9.1-11.3c-0.8-0.8-1.4-1.5-1.9-2c-3.7-3.6-8.3-7-11.9-8.2c-0.7-0.2-1.3-0.4-1.8-0.4
				c-0.5,0-0.9,0-1.2,0.2C354.9,21.8,355.6,23.4,357,25.4z"/>
			<path fill="#D07F29" d="M572.1,336.3c2.3,1.2,4.7,2.5,6.9,3.8c0.5,0.3,1,0.6,1.3,0.7c2.5,1.3,5.2,2.6,7.5,2.8
				c0.4,0,0.8,0,1.2-0.1c0.4-0.1,0.7-0.2,0.9-0.5c0.8-0.7,0.7-2-0.1-3.4c-0.3-0.5-0.6-0.9-1-1.4c-3.4-4-9.2-6.1-14.1-8
				c-0.6-0.2-1.1-0.4-1.7-0.6c-7.9-2.8-18.6-5-27.3-6.1c-8.6-1.2-15.3-1.6-15.3-1.6c0,0,6.5,1.5,14.8,3.9c8.3,2.4,18.3,6,25.4,9.6
				C571.1,335.8,571.6,336.1,572.1,336.3z"/>
			<path fill="#D07F29" d="M634.3,494.8c-2.7-11.2-9.9-22.9-17-32.8c-0.8-1.1-1.6-2.2-2.5-3.3c-11.3-15.5-29.5-32.8-45.5-45
				c-15.9-12.3-28.9-20.4-28.9-20.4c-0.1,0.1,12.4,9,27.4,22.2c15,13.1,31.8,31.3,41.9,46.8c0.8,1.1,1.5,2.2,2.2,3.3
				c3.3,5.2,6.4,10.6,9.2,16c0.6,1.3,1.2,2.3,1.6,3.1c3,5.8,6,12.3,8.6,16.3c0.5,0.8,1,1.4,1.4,1.8c0.4,0.4,0.8,0.7,1.2,0.7
				c1.2,0.1,1.4-2,1-5.3C634.8,497.3,634.5,496.1,634.3,494.8z"/>
			<path fill="#D07F29" d="M404.8,552.6c2.4-13.7,4.6-32,4.5-46.8c0-14.8-2.1-26-2.1-26c0,0,1,11.3-0.3,25.9
				c-1.1,14.6-4.8,32.3-8.2,45.6c-0.3,1-0.5,2-0.7,2.9c-1.1,4.4-2.3,8.9-3.5,13.4c-0.3,1-0.5,1.9-0.6,2.5c-1.1,4.8-2,10.1-1.8,13.8
				c0.1,0.7,0.2,1.3,0.3,1.7c0.2,0.5,0.4,0.8,0.7,1c1,0.6,2.2-0.6,3.4-2.7c0.4-0.7,0.8-1.5,1.2-2.4c3.4-7.6,4.8-17.3,6.5-26
				C404.5,554.6,404.7,553.6,404.8,552.6z"/>
			<path fill="#D07F29" d="M295.3,519.4c4.1-7.6,9.1-16.5,13.8-25.5c0.3,0.1,0.6,0.3,0.9,0.3c2,0.4,3.9-0.8,4.3-2.8
				c0.4-1.6-0.4-3.2-1.9-4c2-3.8,3.8-7.5,5.6-11.1c6.7-13.8,10.6-24.9,10.7-24.8c0,0-5,10.6-12.7,23.7c-7.8,13.1-18.3,28.8-26,40.8
				c-0.6,0.9-1.1,1.8-1.7,2.6c-2.6,4-5.2,8-7.8,12c-0.6,0.9-1.1,1.7-1.5,2.3c-2.7,4.4-5.3,9.2-6.4,12.9c-0.2,0.7-0.3,1.3-0.3,1.8
				c0,0.5,0.1,0.9,0.3,1.2c0.7,0.9,2.3,0.2,4.2-1.5c0.6-0.6,1.3-1.2,2-1.9c5.9-6.4,10.5-15.5,15-23.4
				C294.2,521.2,294.8,520.3,295.3,519.4z"/>
			<path fill="#D07F29" d="M189.7,180.2c0.5,0.2,1,0.3,1.5,0.4c4.5,0.9,9.5,0.5,14.2,1.6c0.5,0.1,1.1,0.2,1.6,0.4
				c7.5,1.6,17,6.2,24.6,10.2c7.6,4,13.7,6.7,13.7,6.6c0,0-5.5-3.6-12.5-8.6c-7-5-15.9-11.2-24-14.1c-0.6-0.2-1.2-0.5-1.7-0.6
				c-2.7-0.9-5.6-1.6-8.5-1.9c-0.7-0.1-1.2-0.1-1.7-0.1c-3.2-0.1-6.6,0.6-8.5,2.1c-0.4,0.3-0.6,0.6-0.8,0.9c-0.2,0.3-0.3,0.6-0.3,1
				C187.3,179,188.3,179.8,189.7,180.2z"/>
			<path fill="#D07F29" d="M217.4,120.5c0.8,0.5,1.5,1,2.3,1.5c10.7,6.7,24.9,15.1,36,22.5c11.1,7.4,19,13.9,19,13.9
				c0,0-7.2-7.4-17.6-15.8c-10.4-8.5-23.8-18.2-33.8-25.8c-0.7-0.6-1.5-1.1-2.2-1.6c-3.3-2.5-6.7-5-10-7.6c-0.8-0.6-1.4-1.1-1.9-1.4
				c-3.6-2.6-7.6-5.3-10.7-6.4c-0.6-0.2-1.1-0.3-1.6-0.4c-0.5,0-0.9,0-1.1,0.2c-0.9,0.6-0.5,2.2,0.7,4.1c0.4,0.6,0.9,1.3,1.5,2
				C202.9,111.5,210.7,116.1,217.4,120.5z"/>
			<path fill="#D07F29" d="M242.1,24.5c0.6,0.5,1.3,1.1,2,1.6c6.5,4.6,14.9,8.6,21.8,13.5c0.8,0.5,1.6,1.1,2.4,1.7
				c10.9,7.6,23.8,20,32.4,31.6c8.7,11.5,13.7,21.5,13.7,21.5c-0.1,0-4-10.4-11.8-22.8c-7.6-12.5-19.7-26.4-30.5-35.2
				c-0.8-0.7-1.6-1.3-2.3-1.9c-3.6-2.9-7.5-5.6-11.4-8.1c-0.9-0.6-1.7-1-2.3-1.4c-4.4-2.4-9.5-4.5-13.1-4.8c-0.7-0.1-1.3,0-1.8,0
				c-0.5,0.1-0.9,0.3-1.1,0.5C239.3,21.6,240.3,23,242.1,24.5z"/>
			<path fill="#D07F29" d="M347.8,93c0,0-1.2-4.3-3.8-9.5c-2.5-5.3-6.2-11.5-9.1-16.1c-0.2-0.3-0.4-0.7-0.6-1
				c-0.9-1.5-1.9-3-2.9-4.5c-0.2-0.3-0.4-0.6-0.6-0.8c-1.2-1.5-2.6-2.9-4.3-3.4c-0.3-0.1-0.6-0.1-1-0.1c-0.3,0-0.6,0.1-0.9,0.2
				c-1,0.5-1.4,1.5-1.5,2.6c0,0.4,0,0.8,0.1,1.2c0.7,3.5,3.7,6.1,5.9,8.7c0.3,0.3,0.5,0.6,0.8,0.9c3.7,4,8.5,9,12,13.5
				C345.6,89.2,347.8,93,347.8,93z"/>
			<path fill="#D07F29" d="M472.9,88.4c0.1,5.7-0.3,12.4-1.1,19c0,0,0,0,0,0c-2-0.4-3.9,0.8-4.3,2.8s0.8,3.9,2.8,4.3
				c0.2,0,0.4,0.1,0.6,0.1c-0.3,2-0.7,3.9-1.1,5.8c-2,10-4.8,17.4-4.8,17.4c0,0,3.7-7,7-16.8c3.4-9.8,6.1-22.5,7.1-32.3
				c0.1-0.7,0.2-1.4,0.2-2.1c0.3-3.3,0.5-6.6,0.5-9.9c0-0.8,0-1.4,0-1.9c-0.2-3.5-0.7-7.3-2.1-9.7c-0.3-0.4-0.5-0.8-0.8-1.1
				c-0.3-0.3-0.6-0.4-0.9-0.5c-1.1-0.2-1.9,0.9-2.5,2.6c-0.2,0.5-0.4,1.2-0.5,1.8c-1.1,5.7-0.1,12.3-0.1,18.3
				C472.9,87,472.9,87.7,472.9,88.4z"/>
			<path fill="#D07F29" d="M435.9,128.9c0.1,0.4,0.2,0.8,0.3,1.2c1.4,5.6,2.6,13.1,2,19.2c-0.5,6.2-2.5,10.6-2.5,10.6
				c-0.1,0,2.6-4.1,3.9-10.4c1.4-6.2,1.2-14.2,0.4-20.1c-0.1-0.4-0.1-0.9-0.2-1.3c-0.3-2-0.6-3.9-1-5.9c-0.1-0.4-0.2-0.8-0.2-1.1
				c-0.5-2-1.3-4.2-2.4-5.5c-0.2-0.2-0.4-0.4-0.6-0.5c-0.2-0.1-0.4-0.2-0.6-0.2c-0.7,0-1.1,0.7-1.3,1.8c-0.1,0.4-0.1,0.7-0.1,1.2
				C433.6,121.5,435.1,125.3,435.9,128.9z"/>
			<path fill="#D07F29" d="M361.2,138.6c2.1,5.6,5.8,11.4,8.6,17.1c0.3,0.6,0.6,1.3,1,1.9c4.5,8.9,9.7,20.9,13.1,31
				c3.5,10,5.5,18,5.5,18c0,0-1.3-8.1-4.1-18.4c-2.7-10.3-7-22.9-11-32.2c-0.3-0.7-0.6-1.4-0.9-2c-1.3-3.1-2.8-6.2-4.3-9.2
				c-0.4-0.7-0.6-1.3-0.9-1.7c-1.7-3.2-3.9-6.5-5.8-8.3c-0.4-0.3-0.7-0.6-1-0.8c-0.3-0.2-0.6-0.2-0.8-0.2c-0.7,0.1-0.7,1.3-0.2,3
				C360.8,137.3,361,138,361.2,138.6z"/>
			<path fill="#D07F29" d="M278.1,113.8c0.4,0.4,0.8,0.8,1.2,1.3c5.6,5.9,12.6,13.9,17.5,21c5,7.1,7.7,13.2,7.8,13.1
				c0,0-2.2-6.3-6.5-13.9c-4.2-7.6-10.6-16.4-15.8-22.8c-0.4-0.5-0.7-0.9-1.1-1.4c-1.7-2.1-3.5-4.2-5.3-6.3c-0.4-0.5-0.8-0.9-1-1.2
				c-2-2.1-4.2-4.3-6.1-5.4c-0.4-0.2-0.7-0.3-1-0.4c-0.3-0.1-0.5-0.1-0.7,0c-0.7,0.3-0.5,1.3,0.1,2.6c0.2,0.4,0.4,0.9,0.7,1.4
				C270.4,106.2,274.7,110,278.1,113.8z"/>
			<path fill="#D07F29" d="M509.4,348.9c-18-4.7-32.1-7-32.1-7c0,0,13.9,3,31.7,8.4c17.8,5.4,39.1,14,54.3,22.4
				c1.1,0.6,2.2,1.2,3.3,1.8c5,2.8,10,5.8,14.9,9c1.1,0.7,2.1,1.3,2.8,1.8c5.2,3.3,10.7,7.1,14.6,9.3c0.7,0.4,1.4,0.7,1.9,0.9
				c0.5,0.2,0.9,0.3,1.1,0.2c0.8-0.2-0.3-1.8-2.3-4c-0.7-0.7-1.5-1.5-2.4-2.3c-7.8-7.1-18.7-13.3-28.6-18.4
				c-1.1-0.6-2.2-1.1-3.4-1.7C549.3,361.3,527.5,353.5,509.4,348.9z"/>
			<path fill="#D07F29" d="M568.2,446.6c1.9,3.6,3.7,7.4,5.4,11.1c0.4,0.9,0.7,1.6,1,2.1c1.9,4,3.9,8.3,5.6,11
				c0.3,0.5,0.6,0.9,0.9,1.2c0.3,0.3,0.6,0.5,0.8,0.5c0.8,0.1,0.8-1.3,0.5-3.5c-0.1-0.7-0.3-1.5-0.5-2.3
				c-1.9-7.3-6.2-15.2-10.2-22.1c-0.4-0.8-0.9-1.6-1.4-2.3c-6.5-10.8-16.8-23.9-26.3-33.3c-9.4-9.4-17.7-15.4-17.7-15.5
				c0,0,7.8,6.6,16.6,16.5c8.9,9.8,18.2,23.3,24,34.2C567.4,445,567.8,445.8,568.2,446.6z"/>
			<path fill="#D07F29" d="M497.9,529.7c-0.7-8.5-3.7-18.1-6.6-26.7c-0.3-0.9-0.7-1.9-1-2.9c-4.7-13.4-12.4-30.4-19.3-43.8
				c-6.9-13.4-12.6-23.4-12.5-23.4c0,0,5.1,10.3,11.2,24c6.2,13.7,12.9,30.9,16.9,44.4c0.3,1,0.6,2,0.9,2.9c1.3,4.5,2.5,9,3.6,13.6
				c0.3,1.1,0.5,1.9,0.6,2.6c1.2,4.8,2.5,10.1,3.8,13.5c0.2,0.6,0.5,1.2,0.7,1.5c0.2,0.4,0.5,0.6,0.7,0.7c0.7,0.3,1.1-1.3,1.1-3.7
				C498.1,531.5,498,530.6,497.9,529.7z"/>
			<path fill="#D07F29" d="M375.2,470.2c0,0-1.5,7-3.2,16.1c-1.7,9.1-4,20.4-6.5,28.6c-0.2,0.6-0.4,1.2-0.5,1.8
				c-0.8,2.7-1.8,5.5-2.7,8.1c-0.2,0.6-0.4,1.1-0.6,1.5c-1,2.9-2.1,6-2.4,8.3c0,0.4-0.1,0.8,0,1.1c0,0.3,0.1,0.5,0.3,0.7
				c0.5,0.5,1.4-0.1,2.5-1.2c0.3-0.4,0.7-0.8,1-1.4c3-4.5,4.5-10.7,5.8-16.1c0.1-0.6,0.3-1.2,0.4-1.9c1.9-8.7,3.2-20.1,4.1-29.4
				C374.3,477.3,375.2,470.2,375.2,470.2z"/>
			<path fill="#D07F29" d="M188.8,445.7c0.4-0.2,0.7-0.5,1.1-0.8c3.3-2.6,6.2-6.4,9.4-9.5c0.3-0.4,0.7-0.7,1.1-1.1
				c4.9-5,12-11.1,17.5-16.1c5.6-5.1,9.6-9.2,9.6-9.2c0,0-4.4,3.7-10.6,8.1c-6.1,4.4-13.7,9.8-19.3,14.4c-0.4,0.3-0.8,0.7-1.2,1
				c-1.8,1.5-3.6,3.2-5.3,4.9c-0.4,0.4-0.7,0.7-1,1c-1.7,1.9-3.4,4.2-3.9,6.1c-0.1,0.4-0.2,0.7-0.1,0.9c0,0.3,0.1,0.5,0.2,0.7
				C186.8,446.6,187.7,446.3,188.8,445.7z"/>
			<path fill="#D07F29" d="M171,252.5c-10.5-0.7-23.6-1.6-33.7-1.1c-0.7,0-1.5,0.1-2.2,0.1c-3.3,0.2-6.7,0.6-10.1,1.1l-11.5,3.8
				c-0.4,0.3-0.7,0.6-1,0.8c-0.2,0.3-0.4,0.5-0.4,0.7c0,0.7,1.1,1,2.8,0.9c0.6,0,1.2-0.1,1.9-0.1c5.8-0.7,12.4-2.4,18.6-3.1
				c0.7-0.1,1.4-0.2,2.1-0.2c9.7-1.2,22.8-1.2,33.4-1.3c10.6-0.1,18.7-0.6,18.7-0.6C189.6,253.3,181.5,253.2,171,252.5z"/>
			<path fill="#D07F29" d="M486.1,149.4c0,0,5.7-5.4,12.8-12.8c7.1-7.4,15.4-17,21.2-24.7c0.4-0.6,0.9-1.1,1.3-1.7
				c1.9-2.6,3.8-5.2,5.6-7.9c0.4-0.6,0.8-1.1,1-1.5c1.8-2.9,3.6-6.3,4.2-8.8c0.1-0.5,0.2-0.9,0.2-1.2c0-0.3-0.1-0.6-0.2-0.8
				c-0.5-0.6-1.5,0-2.7,1.2c-0.4,0.4-0.8,0.8-1.2,1.3c-3.7,4.4-6.8,10.3-10.2,15.3c-0.4,0.6-0.7,1.1-1.1,1.7
				c-5.2,8-12.7,18.1-19.2,26C491.3,143.5,486.1,149.3,486.1,149.4z"/>
			<path fill="#D07F29" d="M450.8,48.3c-0.3,4.9,0,10.3,0.3,15.7c-0.9,0.5-1.5,1.3-1.8,2.4c-0.4,1.7,0.5,3.4,2,4.1
				c0,0.1,0,0.2,0,0.3c0,0.8,0,1.7,0.1,2.5c0.3,11.6-0.3,26.9-1.9,39.2c-1.6,12.3-3.9,21.5-3.9,21.5c0,0,3-9.1,5.3-21.3
				c2.5-12.2,4-27.6,4.4-39.4c0-0.9,0.1-1.7,0.1-2.5c0-0.3,0-0.6,0-0.9c0.5-0.5,0.9-1.1,1-1.9c0.3-1.2-0.1-2.5-1-3.3
				c0-1.9,0-3.8,0-5.7c0-0.9,0-1.7-0.1-2.2c-0.2-4.2-0.7-8.7-1.6-11.6c-0.2-0.5-0.4-1-0.6-1.3c-0.2-0.3-0.4-0.6-0.6-0.6
				c-0.7-0.3-1.2,1-1.5,3C450.9,46.7,450.9,47.5,450.8,48.3z"/>
			<path fill="#D07F29" d="M419.3,408.2c-0.1-0.4-0.2-0.8-0.3-1.1c-0.7-2.3-1.5-4.5-2.3-6.8c-4.1-11.3-9.1-21.5-14-30.2
				c1.2-0.4,2.2-1.4,2.5-2.7c0.4-2-0.8-3.9-2.8-4.3c-1.2-0.3-2.4,0.1-3.2,0.9c-0.8-1.4-1.7-2.7-2.5-4c0.3-1.9-0.8-3.7-2.7-4.1
				c-0.2-0.3-0.4-0.7-0.7-1c-7.2-10.9-12.4-17.2-12.3-17.2c0,0,4.7,6.6,11.4,17.8c0.1,0.1,0.1,0.2,0.2,0.3c-1.5,0.2-2.8,1.3-3.1,2.8
				c-0.4,2,0.8,3.9,2.8,4.3c1.5,0.3,2.9-0.3,3.7-1.4c0.7,1.3,1.4,2.5,2.2,3.9c-0.1,0.2-0.1,0.3-0.2,0.5c-0.4,2,0.8,3.9,2.8,4.3l0,0
				c4.7,8.9,9.6,19.3,13.8,30.8c0.5,1.4,1,2.7,1.4,4.1c-1.8-0.2-3.5,1-3.9,2.8c-0.4,2,0.8,3.9,2.8,4.3c1.2,0.3,2.3-0.1,3.1-0.8
				c4.4,14.7,6.6,28.5,7.8,38.9c1.4,13,1.2,21.1,1.3,21.1c-0.1,0,0.6-8.1-0.2-21.2C426.1,439.1,424.2,424.2,419.3,408.2z"/>
			<path fill="#D07F29" d="M303.4,453.6c0.7-0.3,1.3-0.5,2-0.8c-3.3,4.5-5.3,7.1-5.3,7.1c0,0,2.9-2.8,7.7-8c6.6-2.3,13.3-4.1,18-5.3
				c1.1-0.3,2-0.5,2.7-0.8c0.7-0.2,1.1-0.4,1.3-0.5c0.6-0.4-1.9-0.4-5.9,0.2c-1.3,0.2-2.8,0.5-4.4,0.8c-2.7,0.6-5.6,1.3-8.4,2.1
				c1.1-1.2,2.3-2.5,3.5-4c8.6-9.9,19.9-24.2,29.3-42c4.7-8.8,8.3-17.9,11.1-26c2.2-5.7,4-11.1,5.4-16c1.4-0.3,2.5-1.3,2.9-2.8
				c0.3-1.3-0.2-2.6-1.1-3.5c3.2-12.5,4-20.5,4-20.4c-0.1,0-2,7.6-6.3,19.5c-1.7-0.1-3.3,1.1-3.7,2.9c-0.3,1.4,0.2,2.8,1.3,3.6
				c-1.8,4.6-3.9,9.7-6.4,15.1c-3.3,8.1-7,16.5-11.6,25.3c-9.2,17.4-19.3,32.2-26.9,42.8c-1.7,2.4-3.3,4.6-4.7,6.5
				c-10.6,3.5-21.5,8.6-31,14.3c-1.5,0.8-2.9,1.7-4.4,2.7c-2.8,1.7-5.8,3.6-8.7,5.6c1.9-3.1,3.6-6.6,5.5-9.7c0.3-0.5,0.6-1,0.9-1.5
				c4.1-7,10-15.9,14.8-23.1c4.8-7.2,8.4-12.8,8.4-12.8s-4.1,5.2-9.6,12c-5.5,6.7-12.2,15.1-16.9,21.8c-0.4,0.5-0.7,1-1,1.5
				c-1.6,2.3-3.1,4.6-4.5,7c-0.3,0.6-0.6,1-0.8,1.4c-1.4,2.6-2.7,5.6-2.9,7.8c0,0.1,0,0.1,0,0.2c-16.4,11.9-33.5,27.1-47.8,40
				c-18.6,17-33.6,29.3-33.6,29.2c0,0.1,15.2-11.9,34.1-28.7c14.4-12.6,31.6-27.4,48-38.9c0.5,0,1.2-0.4,2-1.2
				c0.1-0.1,0.2-0.3,0.3-0.4c4.4-3,8.7-5.8,12.9-8.3c1.5-0.9,3-1.8,4.4-2.6c6.8-3.9,14-7.4,21.3-10.3
				C301,454.6,302.3,454,303.4,453.6z"/>
			<path fill="#D07F29" d="M387.5,359.1c-1.3-3.4-2.7-6.6-4-9.4c-0.5-1-0.9-2-1.4-2.9c0.1-1.4-0.6-2.8-1.8-3.5
				c-3.8-7.1-6.5-11-6.5-11.1c-0.1,0,1.8,3.8,4.4,10.6c-1.6,0.1-3,1.2-3.4,2.9c-0.4,2,0.8,3.9,2.8,4.3c1.1,0.2,2.2-0.1,3-0.7
				c0.2,0.4,0.3,0.9,0.5,1.3c0.9,2.5,1.8,5.2,2.7,8.2c-1,0.5-1.7,1.4-2,2.5c-0.4,2,0.8,3.9,2.8,4.3c0.4,0.1,0.8,0.1,1.2,0
				c2.4,9.1,4.7,19.6,6.3,31c2.7,18.3,3.5,35.1,3.8,47.3c0.3,12.2,0.1,19.8,0.1,19.8c0,0,1.4-7.5,2.4-19.7c1-12.2,1.4-29.4-1.3-48.1
				c-1.8-12.3-4.8-23.5-8.2-33c0,0,0,0,0-0.1C389.3,361.4,388.7,359.9,387.5,359.1z"/>
			<circle fill="#D07F29" cx="413.3" cy="183" r="3.7"/>
			<path fill="#D07F29" d="M455.5,318c-0.4,2,0.8,3.9,2.8,4.3c2,0.4,3.9-0.8,4.3-2.8c0.4-2-0.8-3.9-2.8-4.3
				C457.8,314.7,455.9,316,455.5,318z"/>
			<circle fill="#D07F29" cx="430.1" cy="174.8" r="3.7"/>
			<path fill="#D07F29" d="M321.1,215.1c2,0.4,3.9-0.8,4.3-2.8c0.4-2-0.8-3.9-2.8-4.3c-2-0.4-3.9,0.8-4.3,2.8
				C317.9,212.7,319.1,214.7,321.1,215.1z"/>
			<path fill="#D07F29" d="M295.6,239c2,0.4,3.9-0.8,4.3-2.8c0.4-2-0.8-3.9-2.8-4.3c-2-0.4-3.9,0.8-4.3,2.8
				C292.4,236.6,293.7,238.5,295.6,239z"/>
			<path fill="#D07F29" d="M429.6,203.5c2,0.4,3.9-0.8,4.3-2.8c0.4-2-0.8-3.9-2.8-4.3c-2-0.4-3.9,0.8-4.3,2.8
				C426.4,201.1,427.6,203,429.6,203.5z"/>
			<path fill="#D07F29" d="M608.3,376.4c-0.4,2,0.8,3.9,2.8,4.3c2,0.4,3.9-0.8,4.3-2.8c0.4-2-0.8-3.9-2.8-4.3
				C610.7,373.1,608.8,374.4,608.3,376.4z"/>
			<circle fill="#D07F29" cx="549.1" cy="465.5" r="3.6"/>
			<path fill="#D07F29" d="M417.4,490.4c0.4-2-0.8-3.9-2.8-4.3c-2-0.4-3.9,0.8-4.3,2.8c-0.4,2,0.8,3.9,2.8,4.3
				C415,493.6,417,492.3,417.4,490.4z"/>
			<path fill="#D07F29" d="M270.8,237.1c2,0.4,3.9-0.8,4.3-2.8c0.4-2-0.8-3.9-2.8-4.3c-2-0.4-3.9,0.8-4.3,2.8
				C267.6,234.7,268.8,236.7,270.8,237.1z"/>
			<circle fill="#D07F29" cx="600.4" cy="364.4" r="3.6"/>
			<path fill="#D07F29" d="M380.8,443.7c0.4-2-0.8-3.9-2.8-4.3c-1.3-0.3-2.6,0.2-3.4,1.1c2.3-9.8,3.8-21.1,4.1-33
				c0.6-21.3-2.4-40.4-5.1-54c-0.7-3.3-1.3-6.3-1.9-8.9c0.3-0.4,0.6-0.9,0.7-1.4c0.4-1.7-0.5-3.4-2-4.1c-1.2-4.7-2-7.4-1.9-7.4
				c0,0,0.6,2.6,1.5,7.2c-0.1,0-0.2-0.1-0.3-0.1c-2-0.4-3.9,0.8-4.3,2.8c-0.4,1.9,0.8,3.8,2.6,4.3c-0.7,6.2-2,17.4-4.7,32
				c-0.5,2.9-1.1,5.9-1.8,9c-0.7,3.1-1.7,6.3-2.5,9.6c-1.8,6.7-3.7,13.8-5.7,21.3c-4.1,15-8.5,31.5-14,48.5c-5.5,17-11.6,33-18,47.1
				c-6.4,14.1-13.2,26.3-19.5,36.2c-12.7,19.8-23.2,30.1-23,30.1c-0.2-0.1,10.7-10,23.9-29.6c6.6-9.7,13.6-21.9,20.2-36
				c6.6-14.1,12.8-30.1,18.4-47.1c5.6-17.1,9.9-33.6,13.8-48.7c1.9-7.5,3.7-14.7,5.4-21.4c0.8-3.4,1.7-6.5,2.4-9.7
				c0.6-3.2,1.1-6.2,1.6-9.1c2.4-14.7,3.4-25.9,3.8-32.2c1.1,0.2,2.2-0.1,3-0.7c0.5,2.5,1,5.4,1.5,8.5c2.2,13.6,4.6,32.7,4,53.7
				c-0.5,21-4.5,39.8-9.2,52.8c-4.6,13-9.1,20.4-9,20.5c-0.1,0,4.8-7.2,10-20.1c1.9-4.8,3.8-10.4,5.4-16.6c0.4,1.3,1.4,2.3,2.7,2.6
				C378.4,447,380.3,445.7,380.8,443.7z"/>
			<path fill="#D07F29" d="M340,187c2,0.4,3.9-0.8,4.3-2.8c0.4-2-0.8-3.9-2.8-4.3c-2-0.4-3.9,0.8-4.3,2.8
				C336.7,184.6,338,186.6,340,187z"/>
			<path fill="#D07F29" d="M537.6,291.3c-2-0.4-3.9,0.8-4.3,2.8c-0.4,2,0.8,3.9,2.8,4.3c2,0.4,3.9-0.8,4.3-2.8
				C540.8,293.7,539.6,291.8,537.6,291.3z"/>
			<path fill="#D07F29" d="M329.4,146c2,0.4,3.9-0.8,4.3-2.8c0.4-2-0.8-3.9-2.8-4.3c-2-0.4-3.9,0.8-4.3,2.8
				C326.1,143.6,327.4,145.6,329.4,146z"/>
			<path fill="#D07F29" d="M539.8,337.9c-0.4,2,0.8,3.9,2.8,4.3c2,0.4,3.9-0.8,4.3-2.8c0.4-2-0.8-3.9-2.8-4.3
				C542.2,334.7,540.2,335.9,539.8,337.9z"/>
			<path fill="#D07F29" d="M593.8,492.3c-2-0.4-3.9,0.8-4.3,2.8c-0.4,2,0.8,3.9,2.8,4.3c2,0.4,3.9-0.8,4.3-2.8
				C597,494.7,595.7,492.7,593.8,492.3z"/>
			<path fill="#D07F29" d="M582.8,538c-2-0.4-3.9,0.8-4.3,2.8c-0.4,2,0.8,3.9,2.8,4.3c2,0.4,3.9-0.8,4.3-2.8
				C586.1,540.4,584.8,538.5,582.8,538z"/>
			<circle fill="#D07F29" cx="564.3" cy="559.4" r="3.7"/>
			<path fill="#D07F29" d="M507,521.1c-2-0.4-3.9,0.8-4.3,2.8c-0.4,2,0.8,3.9,2.8,4.3c2,0.4,3.9-0.8,4.3-2.8
				C510.2,523.5,509,521.6,507,521.1z"/>
			<path fill="#D07F29" d="M476.9,552.5c-2-0.4-3.9,0.8-4.3,2.8c-0.4,2,0.8,3.9,2.8,4.3c2,0.4,3.9-0.8,4.3-2.8
				C480.1,554.9,478.8,553,476.9,552.5z"/>
			<circle fill="#D07F29" cx="390.3" cy="477" r="3.6"/>
			<circle fill="#D07F29" cx="375.2" cy="554.7" r="3.6"/>
			<path fill="#D07F29" d="M285.9,557.5c0.4-2-0.8-3.9-2.8-4.3c-2-0.4-3.9,0.8-4.3,2.8c-0.4,2,0.8,3.9,2.8,4.3
				C283.5,560.7,285.5,559.5,285.9,557.5z"/>
			<path fill="#D07F29" d="M258.6,484.9c-2-0.4-3.9,0.8-4.3,2.8c-0.4,2,0.8,3.9,2.8,4.3c2,0.4,3.9-0.8,4.3-2.8
				C261.8,487.3,260.6,485.3,258.6,484.9z"/>
			<path fill="#D07F29" d="M241.5,395.1c0.4-2-0.8-3.9-2.8-4.3c-2-0.4-3.9,0.8-4.3,2.8c-0.4,2,0.8,3.9,2.8,4.3
				C239.1,398.3,241,397,241.5,395.1z"/>
			<path fill="#D07F29" d="M179.2,444c0.4-2-0.8-3.9-2.8-4.3c-2-0.4-3.9,0.8-4.3,2.8c-0.4,2,0.8,3.9,2.8,4.3
				C176.8,447.3,178.7,446,179.2,444z"/>
			<path fill="#D07F29" d="M134.1,462.5c2,0.4,3.9-0.8,4.3-2.8c0.4-2-0.8-3.9-2.8-4.3c-2-0.4-3.9,0.8-4.3,2.8
				C130.9,460.1,132.2,462.1,134.1,462.5z"/>
			<path fill="#D07F29" d="M125.6,497.2c2,0.4,3.9-0.8,4.3-2.8c0.4-2-0.8-3.9-2.8-4.3c-2-0.4-3.9,0.8-4.3,2.8
				C122.4,494.8,123.6,496.8,125.6,497.2z"/>
			<path fill="#D07F29" d="M100.9,531.9c-2-0.4-3.9,0.8-4.3,2.8c-0.4,2,0.8,3.9,2.8,4.3c2,0.4,3.9-0.8,4.3-2.8
				C104.1,534.2,102.8,532.3,100.9,531.9z"/>
			<path fill="#D07F29" d="M84.2,536.9c-2-0.4-3.9,0.8-4.3,2.8c-0.4,2,0.8,3.9,2.8,4.3c2,0.4,3.9-0.8,4.3-2.8
				C87.5,539.3,86.2,537.4,84.2,536.9z"/>
			<circle fill="#D07F29" cx="178.1" cy="283.4" r="3.6"/>
			<path fill="#D07F29" d="M147.7,236c2,0.4,3.9-0.8,4.3-2.8s-0.8-3.9-2.8-4.3c-2-0.4-3.9,0.8-4.3,2.8S145.7,235.6,147.7,236z"/>
			<path fill="#D07F29" d="M250.2,458.3c0.4-2-0.8-3.9-2.8-4.3c-2-0.4-3.9,0.8-4.3,2.8c-0.4,2,0.8,3.9,2.8,4.3
				C247.8,461.5,249.8,460.2,250.2,458.3z"/>
			<path fill="#D07F29" d="M558.7,132c2,0.4,3.9-0.8,4.3-2.8c0.4-2-0.8-3.9-2.8-4.3c-2-0.4-3.9,0.8-4.3,2.8
				C555.5,129.6,556.8,131.5,558.7,132z"/>
			<path fill="#D07F29" d="M615.9,138.5c2,0.4,3.9-0.8,4.3-2.8c0.4-2-0.8-3.9-2.8-4.4c-2-0.4-3.9,0.8-4.3,2.8
				C612.7,136.1,613.9,138.1,615.9,138.5z"/>
			<circle fill="#D07F29" cx="585.7" cy="111.8" r="3.7"/>
			<circle fill="#D07F29" cx="513.8" cy="72.3" r="3.7"/>
			<path fill="#D07F29" d="M378,75.3c-2-0.4-3.9,0.8-4.3,2.8c-0.4,2,0.8,3.9,2.8,4.3c2,0.4,3.9-0.8,4.3-2.8
				C381.3,77.6,380,75.7,378,75.3z"/>
			<path fill="#D07F29" d="M338,107.7c0.4-2-0.8-3.9-2.8-4.3c-2-0.4-3.9,0.8-4.3,2.8c-0.4,2,0.8,3.9,2.8,4.3
				C335.6,110.9,337.6,109.7,338,107.7z"/>
			<circle fill="#D07F29" cx="410.1" cy="90" r="3.6"/>
			<path fill="#D07F29" d="M495.2,125.3c2,0.4,3.9-0.8,4.3-2.8c0.4-2-0.8-3.9-2.8-4.3c-2-0.4-3.9,0.8-4.3,2.8
				C492,122.9,493.3,124.9,495.2,125.3z"/>
			<path fill="#D07F29" d="M493.5,101.7c2,0.4,3.9-0.8,4.3-2.8c0.4-2-0.8-3.9-2.8-4.3c-2-0.4-3.9,0.8-4.3,2.8
				C490.3,99.3,491.6,101.2,493.5,101.7z"/>
			<path fill="#D07F29" d="M337.5,218.2c2,0.4,3.9-0.8,4.3-2.8c0.4-2-0.8-3.9-2.8-4.3c-2-0.4-3.9,0.8-4.3,2.8
				C334.3,215.8,335.5,217.8,337.5,218.2z"/>
			<circle fill="#D07F29" cx="368.7" cy="396.8" r="3.6"/>
			<circle fill="#D07F29" cx="413.1" cy="381" r="3.6"/>
		</g>
		<path fill="#D07F29" d="M359,331.4c0,0-13.9,5.4-16,7.2c0,0,6.4,0.8,6.8,0.7c0.3-0.1,4.4-1.7,4.4-1.7L359,331.4z"/>
		<polygon fill="#D07F29" points="351,340.3 352.5,339.3 354.2,337.6 355.7,335 351,335.8 		"/>
	</g>
	<g>
		<path fill="#C1B662" stroke="#C1B662" d="M86.7,85.7c-60,20.4-92.3,86-71.8,146.1c20.5,60,86.1,92.2,146.1,71.8
			c60-20.4,92.2-86,71.8-146C212.3,97.5,146.7,65.3,86.7,85.7z M159.7,299.7c-57.9,19.7-121.2-11.4-140.9-69.3
			C-1,172.6,30.2,109.3,88,89.6c57.9-19.7,121.1,11.4,140.8,69.2C248.6,216.7,217.6,280,159.7,299.7z"/>
		<path fill="#FFFFFF" d="M89.3,93.3c-55.8,19-85.8,80-66.8,135.9c19,55.8,80,85.8,135.9,66.8c55.8-19,85.7-80.1,66.7-135.9
			C206.1,104.3,145.1,74.3,89.3,93.3z M211.3,243.2c-2.7,2.3-5.7,3.9-9.4,3.5c-2.8-0.2-5.2-2.2-6.6-4.8c-2-3.9-1.3-9.4-0.4-13.3
			c1.2-5.5,4.7-15.6,10-23.3c7.6-11,14-15.5,10.8-16.4c-2.2-0.6-10.1,8-11.7,9.6c-8.9,9.3-18.3,30.5-16,43.1
			c1.8,9.9,14.9,12.9,21.5,7.9c-17,28.6-43.4,38.5-52.6,41.8l0,0c0,0,0,0,0,0l0,0l0,0c-9.4,3-36.4,11.3-67.3-1
			c8.2,0,16.8-10.4,12.2-19.3c-5.8-11.4-26.3-22.4-39-24.3c-2.2-0.4-13.7-2.4-15.1-0.5c-2,2.6,5.8,2.3,18.5,6.4
			c9,2.9,17.8,8.7,22.1,12.4c3.1,2.5,7,6.5,7.8,10.7c0.5,2.9-0.3,5.9-2.3,7.8c-2.7,2.5-6,3.1-9.6,3c-5.4-0.1-10.6-2.5-15.5-6
			c-9.3-6.4-18.9-14.2-25.6-23.7c4.8,5.1,30.4,24.4,38.2,22.2c8-2.2-14.6-17.8-28.1-22.9c-3.3-1.2-7-2.7-9-6.4
			c-1.4-2.7-0.6-5.1,2.1-6.1c4.2-1.6,17.2,0.3,17.3,0.1C32.6,215.8,56,188.4,41.3,185c-5.2-1.2-13.2,4.5-17.9,6.9
			c36.1-42.1,53-18.2,70.8-10.6c2.8,1.2,11.7-4,12.8-6.9c1.4-3.7,2.7-15.8-5.1-20.8c-11.3-7.3-54.1-25.6-75.1,10.6
			c6.5-28.4,34.4-57.2,64.2-66.4c29.3-10.9,68.8-5.1,91.3,13.4c-38.8-15.9-61.5,24.8-66,37.5c-3.1,8.7,5.2,17.5,8.6,19.6
			c2.7,1.6,12.9,0.3,14.4-2.4c9.4-16.9,8.3-46.2,62.5-34.9c-5.2,0.9-15.1,1.3-18.4,5.4c-9.6,11.7,25.6,19.1,18.2,60
			c0.2,0.1,9.3-9.3,13.6-10.6c2.8-0.8,4.9,0.6,5.5,3.5c0.7,4.1-1.4,7.6-3.2,10.6c-7.7,12.3-16,38.4-8.4,35.3
			c7.6-3,16.1-33.9,16.8-40.9c0.5,11.6-2.5,23.7-5.8,34.4C218.2,234.7,215.6,239.7,211.3,243.2z M155,249.6
			c-3.6,1.6-7.3,3.8-10.6,4.9c-3.2,1.2-7.6,1.7-11.4,2.6c-0.6,0.1-0.9,0.7-0.9,0.7c-0.6,5.3,12.6,3.6,14.3,2.9
			c1.8-0.5,13.3-7.3,9.6-11.1C156.2,249.6,155.6,249.3,155,249.6z M130.4,213.2L130.4,213.2C130.4,213.2,130.4,213.2,130.4,213.2
			c-0.1,0-0.1,0-0.1,0l0,0c-3.4,1.3-4.3,4.8-6.4,9.3c-3.5,8-9.8,27,1,31.4c4.8,1.9,10.4,2.4,16.3-1.9c1.3-1.7-0.8-4.8-2.2-6
			c-4.5-3-8.8,0.3-10.9-1.3c-2-1.5-1.6-3.3-1.2-4.6c0.7-1.8,2.7-2.1,4.4-2.2c3-0.3,5.4,0.2,7.7,1.3l0,0.1c0,0,0-0.1,0-0.1
			c0,0,0.1,0,0.1,0l0-0.1c1.1-2.3,2.7-4.2,5.3-5.8c1.4-0.9,3.2-2,4.8-0.9c1.2,0.7,2.5,2,1.9,4.4c-0.7,2.5-6,2.5-7.7,7.6
			c-0.3,1.8-0.2,5.6,1.9,6.2c7.4-0.3,11.5-4.1,14.1-8.5c6-10-10.6-21.3-18.4-25.4C136.8,214.4,133.8,212.1,130.4,213.2z
			 M193.1,164.1c-1.9-4-6.1-4.1-9.7-4c-10.4,0.3-13.1,5.3-15.8,6.5c1.8-4.4-0.8-9.8-5-9.1c-7.7,1.3-3,8.6,0,11.6
			c1.9,1.9,4.7,5.3,8.2,3.8c4.3-1.9,2.4-5.3,8.6-8c0,0,8.2-2.1,8.9,0.4c1,3.9-2.7,6.7-5,8.5c-3.5,2.7-8.7,2.3-10.8,7.1
			c-0.6,1.6-0.9,3.4,0,4.6c0.8,1.3,0.8,0.6,5.3-0.5c-1.4,3.9-1.3,9,0,13.1c3.6,11,3.7,20.4,6.1,23.8c3.1-8.2-0.2-17.8-2-25.8
			c-0.9-4.2-0.9-9.1,0.1-12.6c1.1-4.2,5.3-5.8,7.4-8.8C191.4,171.9,194.5,167.1,193.1,164.1z M71.4,188.6c-3.6,2-2.4,7.9,1.6,10.3
			c-2.8,0.6-8-1.7-16.4,4.5c-2.9,2.1-6.1,4.7-5.2,9.1c0.7,3.2,6.1,5.1,9.4,6.2c3.5,1.2,7.9-0.2,11.3,2.5c2.9,2.3,5.9,6.1,7.8,10
			c3.5,7.4,6.6,17.1,14.2,21.6c-0.3-4.1-5.9-11.7-9.7-22.6c-1.5-4-4.6-8.1-8-10.4c4.3-1.9,4.6-1.3,4.5-2.8c-0.1-1.5-1.4-2.8-2.9-3.6
			c-4.4-2.6-8.4,0.9-12.9,1c-3,0-7.6,0-9.1-3.7c-1-2.5,6.8-5.8,6.8-5.8c6.5-1.7,7.1,2.2,11.6,1.1c3.7-0.9,3.9-5.3,4.3-8
			C79.1,193.5,78.4,184.9,71.4,188.6z M115.6,225.6c1.4-5.6,1.2-16.6-2.1-20.1c-3.3-0.2-7.5-1.2-10.7-3.7c-3.1-2.3-5.5-5.3-9.6-5.1
			c-2.8-0.1-5.3,1.4-7,3.2c-2.6,3-1.9,7.7-1.2,11.5c2.3,7.4,7.3,17.7,12.8,23.4c3.6,4.4,10.8,11.3,19,17.4
			C111,240.2,115.1,229.6,115.6,225.6z M100.5,212.7c-2.3-2-5.8-0.3-7.9-0.7c-3.4-0.9-4.6-4.8-2.8-8.1c2.3-4.3,14.6,2.7,15.3,11.2
			C104.3,215.7,103.7,215.4,100.5,212.7z M156.8,175.8c-2.4-0.4-5.3,0-7.5,1.8c-3.3,2.3-3.4,6.1-4.5,9.8c-1,3.9-3.7,7.4-6.2,9.5
			c-0.4,4.8,6.1,13.7,10.6,17.2c2.8,2.9,12.5,8.8,15.3,21.8c2.7-9.8,4.2-19.6,4.3-25.3c0.9-7.9-1.4-19.2-4.2-26.4
			C163.1,180.8,160.7,176.6,156.8,175.8z M159.1,189.3c-1.3,1.6-5.2,2.4-5.8,5.4c-0.9,4-1.2,4.7-2.1,4.7c-4.6-7.1,0.8-20.2,5.3-18.2
			C159.9,182.6,161.4,186.6,159.1,189.3z"/>
		<path fill="#194723" d="M88,89.6c-57.9,19.7-89,83-69.3,140.9c19.7,57.9,83.1,89,140.9,69.3c57.9-19.7,88.9-83,69.2-140.9
			C209.2,100.9,145.9,69.8,88,89.6z M158.4,296c-55.8,19-116.9-11-135.9-66.8c-19-55.9,10.9-116.8,66.8-135.9
			c55.8-19,116.8,11,135.8,66.8C244.1,215.9,214.2,277,158.4,296z M209.1,235.4c-7.6,3.1,0.7-23,8.4-35.3c1.8-2.9,3.9-6.4,3.2-10.6
			c-0.5-3-2.6-4.4-5.5-3.5c-4.3,1.3-13.4,10.8-13.6,10.6c7.4-40.9-27.8-48.3-18.2-60c3.3-4.1,13.2-4.5,18.4-5.4
			c-54.2-11.3-53.1,18-62.5,34.9c-1.5,2.7-11.7,4-14.4,2.4c-3.4-2.1-11.7-10.9-8.6-19.6c4.6-12.7,27.2-53.3,66-37.5
			c-22.5-18.5-62-24.3-91.3-13.4c-29.9,9.2-57.8,38.1-64.2,66.4c21-36.3,63.8-17.9,75.1-10.6c7.8,5,6.5,17.1,5.1,20.8
			c-1.1,2.9-10,8.1-12.8,6.9c-17.8-7.6-34.7-31.5-70.8,10.6c4.7-2.4,12.7-8.2,17.9-6.9c14.7,3.4-8.7,30.8,22.2,58.7
			c-0.1,0.2-13.1-1.7-17.3-0.1c-2.7,1.1-3.5,3.5-2.1,6.1c1.9,3.7,5.7,5.2,9,6.4c13.6,5.1,36.1,20.7,28.1,22.9
			c-7.7,2.2-33.4-17.1-38.2-22.2c6.7,9.5,16.3,17.2,25.6,23.7c4.9,3.4,10.1,5.9,15.5,6c3.6,0.2,6.9-0.4,9.6-3
			c2.1-1.9,2.8-4.9,2.3-7.8c-0.8-4.3-4.7-8.3-7.8-10.7c-4.2-3.7-13.1-9.5-22.1-12.4c-12.7-4.1-20.6-3.8-18.5-6.4
			c1.4-1.9,12.9,0.1,15.1,0.5c12.7,1.9,33.2,13,39,24.3c4.6,8.9-3.9,19.4-12.2,19.3c30.9,12.3,57.9,4,67.3,1l0,0l0,0c0,0,0,0,0,0
			l0,0c9.2-3.4,35.6-13.2,52.6-41.8c-6.5,5.1-19.6,2-21.5-7.9c-2.3-12.6,7.1-33.8,16-43.1c1.6-1.7,9.4-10.3,11.7-9.6
			c3.2,0.8-3.1,5.4-10.8,16.4c-5.4,7.7-8.9,17.8-10,23.3c-0.9,3.9-1.5,9.4,0.4,13.3c1.4,2.6,3.8,4.5,6.6,4.8
			c3.7,0.4,6.7-1.2,9.4-3.5c4.3-3.4,6.9-8.5,8.7-14.2c3.4-10.8,6.3-22.8,5.8-34.4C225.2,201.5,216.7,232.4,209.1,235.4z M74.3,205.8
			c-4.5,1.1-5-2.7-11.6-1.1c0,0-7.8,3.3-6.8,5.8c1.5,3.7,6.1,3.7,9.1,3.7c4.5-0.1,8.4-3.6,12.9-1c1.4,0.9,2.8,2.1,2.9,3.6
			c0.1,1.5-0.2,0.9-4.5,2.8c3.4,2.2,6.5,6.4,8,10.4c3.8,10.9,9.4,18.4,9.7,22.6c-7.6-4.6-10.7-14.2-14.2-21.6
			c-1.9-3.8-4.9-7.7-7.8-10c-3.4-2.6-7.8-1.3-11.3-2.5c-3.3-1.1-8.7-3-9.4-6.2c-0.9-4.4,2.3-6.9,5.2-9.1c8.4-6.2,13.7-3.8,16.4-4.5
			c-4-2.4-5.3-8.3-1.6-10.3c7-3.7,7.7,4.9,7.2,9.2C78.2,200.5,78,204.8,74.3,205.8z M97.8,234.8c-5.5-5.7-10.5-16-12.8-23.4
			c-0.7-3.8-1.4-8.5,1.2-11.5c1.7-1.8,4.2-3.2,7-3.2c4-0.3,6.4,2.7,9.6,5.1c3.2,2.5,7.5,3.5,10.7,3.7c3.2,3.6,3.5,14.6,2.1,20.1
			c-0.4,4-4.6,14.6,1.2,26.6C108.6,246.1,101.4,239.2,97.8,234.8z M146.5,260.7c-1.7,0.7-14.9,2.4-14.3-2.9c0,0,0.3-0.6,0.9-0.7
			c3.8-0.9,8.1-1.4,11.4-2.6c3.3-1,7-3.3,10.6-4.9c0.5-0.3,1.1,0,1.1,0C159.9,253.5,148.3,260.2,146.5,260.7z M159.4,242.1
			c-2.6,4.4-6.6,8.2-14.1,8.5c-2.1-0.6-2.2-4.3-1.9-6.2c1.7-5.1,7.1-5.1,7.7-7.6c0.6-2.4-0.7-3.7-1.9-4.4c-1.6-1.1-3.4,0-4.8,0.9
			c-2.6,1.6-4.2,3.5-5.3,5.8l0,0.1c0,0-0.1,0-0.1,0c0,0,0,0.1,0,0.1l0-0.1c-2.4-1.1-4.7-1.6-7.7-1.3c-1.7,0.1-3.8,0.4-4.4,2.2
			c-0.5,1.3-0.8,3.1,1.2,4.6c2.1,1.6,6.4-1.7,10.9,1.3c1.4,1.2,3.5,4.3,2.2,6c-6,4.3-11.6,3.8-16.3,1.9c-10.8-4.3-4.5-23.4-1-31.4
			c2.1-4.5,2.9-8,6.4-9.3l0,0c0,0,0,0,0.1,0c0,0,0,0,0.1,0l0,0c3.4-1.1,6.4,1.2,10.6,3.5C148.8,220.9,165.4,232.1,159.4,242.1z
			 M168.9,210.6c-0.1,5.7-1.6,15.6-4.3,25.3c-2.8-13-12.5-18.9-15.3-21.8c-4.5-3.5-11-12.4-10.6-17.2c2.5-2.2,5.2-5.6,6.2-9.5
			c1.1-3.8,1.1-7.6,4.5-9.8c2.2-1.7,5.1-2.1,7.5-1.8c3.9,0.8,6.3,5,7.9,8.4C167.5,191.4,169.8,202.7,168.9,210.6z M189.4,174.7
			c-2.1,3.1-6.3,4.7-7.4,8.8c-1,3.6-0.9,8.5-0.1,12.6c1.8,8,5.1,17.6,2,25.8c-2.4-3.4-2.5-12.8-6.1-23.8c-1.3-4.1-1.4-9.2,0-13.1
			c-4.5,1.1-4.5,1.8-5.3,0.5c-0.8-1.3-0.6-3.1,0-4.6c2-4.8,7.2-4.4,10.8-7.1c2.4-1.8,6-4.6,5-8.5c-0.7-2.6-8.9-0.4-8.9-0.4
			c-6.2,2.7-4.3,6.1-8.6,8c-3.5,1.5-6.3-1.8-8.2-3.8c-3-3.1-7.7-10.3,0-11.6c4.1-0.7,6.8,4.7,5,9.1c2.7-1.2,5.4-6.3,15.8-6.5
			c3.6-0.1,7.7,0,9.7,4C194.5,167.1,191.4,171.9,189.4,174.7z M105,215.1c-0.7-8.5-13-15.5-15.3-11.2c-1.8,3.3-0.6,7.2,2.8,8.1
			c2.1,0.4,5.6-1.3,7.9,0.7C103.7,215.4,104.3,215.7,105,215.1z M156.4,181.2c-4.5-2-9.9,11.1-5.3,18.2c1,0,1.2-0.7,2.1-4.7
			c0.7-3,4.5-3.8,5.8-5.4C161.4,186.6,159.9,182.6,156.4,181.2z"/>
	</g>
	<g>
		<g>
			
				<rect x="437.8" y="299.1" transform="matrix(0.9788 -0.2048 0.2048 0.9788 -59.4137 121.4544)" fill="#194723" stroke="#194723" stroke-width="2" stroke-miterlimit="10" width="238.7" height="97.3"/>
			
				<rect x="437.8" y="299.1" transform="matrix(0.9788 -0.2048 0.2048 0.9788 -59.4137 121.4544)" fill="#FFFFFF" width="238.7" height="97.3"/>
		</g>
		<g>
			<path fill="#194723" d="M459.5,333.6c2-0.4,3.3-0.3,4.2,0.3c1.3,0.9,2,2.3,2.8,6.5l-3,0.6c-0.7-3.4-1.1-4.2-1.6-4.5
				c-0.5-0.4-1.1-0.4-2.3-0.1l-1.9,0.4c-1.4,0.3-2,0.6-2.3,1.1c-0.4,0.6-0.3,1.6,0.3,4.7c0.3,1.5,0.7,2.5,1.1,3c0.4,0.6,1,1.2,2.1,2
				l6.1,4.7l0.3-0.1l2.7-7.6l4.7-1l0.6,2.8l-3,0.6l-2.8,7l5,3.7l3.2-0.7l0.6,2.8l-4.9,1l-4.8-3.7l-0.2,0l-0.9,2.3
				c-0.9,2-1.7,2.9-4,3.4l-2.9,0.6c-2.5,0.5-3.9,0.5-5.1-0.4c-1.5-1-2.2-2.7-3-6.6c-0.8-4.1-0.9-5.3,0-6.7c0.5-0.8,1.7-1.6,3.7-2.3
				l0.3-0.1c-0.8-0.9-1.4-2.2-1.8-4.3c-0.8-4-0.8-5.5,0-6.8c0.7-1.1,1.9-1.7,4.3-2.1L459.5,333.6z M462.7,358.1l1.2-3
				c-2.8-2.2-6.4-4.8-7.8-5.9l-1.2,0.5c-0.9,0.4-1.6,0.8-2,1.4c-0.3,0.6-0.4,1.4,0.2,4.6c0.6,3.2,1.1,4.2,1.9,4.7
				c0.6,0.4,1.4,0.5,3.2,0.1l1.7-0.3C461.6,360,462.2,359.6,462.7,358.1z"/>
			<path fill="#194723" d="M484.5,333.6l-1-5.1l23.5-4.8l1.9,9.4l-5.7,1.2l-0.9-4.4l-8,1.6l1.4,6.8l6.6-1.4l1,4.8l-6.6,1.4l1.4,6.7
				l3.7-0.7l1,5.1l-13.4,2.7l-1-5.1l3.4-0.7l-3.7-18.3L484.5,333.6z"/>
			<path fill="#194723" d="M510.8,352.7l-1-5.1l2.8-0.6l2.6-22.9c0.2-1.7,0.7-2.3,2.3-2.6l4.6-0.9c1.6-0.3,2.2,0,3.1,1.5l11.4,20
				l2.7-0.6l1,5.1l-12.8,2.6l-1-5.1l3.2-0.7l-1.9-3.5l-8.6,1.7l-0.3,4l3.2-0.7l1,5.1L510.8,352.7z M519.5,336.7l5.9-1.2l-4.6-8.7
				l-0.5,0.1L519.5,336.7z"/>
			<path fill="#194723" d="M546.5,321.9l3.5,17.3l2.6-0.5l1,5.1l-11.8,2.4l-1-5.1l3.4-0.7l-3.7-18.3l-3.4,0.7l-1-5.1l13.2-2.7
				c1.2-0.2,1.6,0,2.1,1.1l7.8,17.3l0.5-0.1l0.3-18.9c0-1.3,0.3-1.6,1.5-1.9l13-2.7l1,5.1l-3.4,0.7l3.7,18.3l3.4-0.7l1,5.1
				l-12.3,2.5l-1-5.1l2.5-0.5L566,318l-0.6,0.1l-0.9,22.1c0,1.2-0.3,1.6-1.4,1.8l-4.5,0.9c-1.1,0.2-1.5,0-2-1.1l-9.5-19.9
				L546.5,321.9z"/>
			<path fill="#194723" d="M595.4,330l1,5.1l-13.4,2.7l-1-5.1l3.6-0.7l-3.7-18.3l-3.6,0.7l-1-5.1l13.4-2.7l1,5.1l-3.5,0.7l3.7,18.3
				L595.4,330z"/>
			<path fill="#194723" d="M597.6,310.5l-3.4,0.7l-1-5.1l13.4-2.7l1,5.1l-3.6,0.7l3.7,18.3l7.7-1.6l-1.1-5.2l5.7-1.2l2.1,10.3
				l-23.2,4.7l-1-5.1l3.4-0.7L597.6,310.5z"/>
			<path fill="#194723" d="M617.7,306.4l-2.8,0.6l-1-5.1l13-2.7l1,5l-2.9,0.6l5.7,6.1l0.2-0.1l3.2-7.9l-3,0.6l-1-5l12.5-2.5l1,5.1
				l-2.9,0.6l-6,13.7l1.3,6.4l3.6-0.7l1,5.1l-13.6,2.8l-1-5.1l3.6-0.7l-1.3-6.2L617.7,306.4z"/>
			<path fill="#194723" d="M478.2,370.2l8.2,19.4l0.4-0.1l-0.6-17.7l-3.2,0.7l-1-5.1l12.1-2.5l1,5.1l-2.8,0.6l-0.2,22.4
				c0,1.7-0.6,2.3-2.2,2.6l-4.6,0.9c-1.6,0.3-2.4-0.1-3-1.6l-7.4-17.3l-0.4,0.1l0,18.8c0,1.6-0.6,2.3-2.2,2.6l-4.6,0.9
				c-1.6,0.3-2.4,0-3.1-1.5l-8.9-20.5l-2.8,0.6l-1-5.1l12.6-2.6l1,5.1l-3.2,0.7l6.4,16.5l0.5-0.1l0-21c0-1.6,0.6-2.3,2.2-2.6
				l3.8-0.8C476.7,368.3,477.6,368.7,478.2,370.2z"/>
			<path fill="#194723" d="M496.5,369.7l-1-5.1l23.8-4.9l1.9,9.5l-5.7,1.2l-0.9-4.4l-8.4,1.7l1.3,6.4l6.8-1.4l1,4.8l-6.8,1.4
				l1.5,7.1l8.6-1.7l-1-5l5.7-1.2l2.1,10.1l-24,4.9l-1-5.1l3.4-0.7L500,369L496.5,369.7z"/>
			<path fill="#194723" d="M523.5,364.2l-1-5.1l23.8-4.9l1.9,9.5l-5.7,1.2l-0.9-4.4l-8.4,1.7l1.3,6.4l6.8-1.4l1,4.8l-6.8,1.4
				l1.5,7.1l8.6-1.7l-1-5l5.7-1.2l2.1,10.1l-24,4.9l-1-5.1l3.4-0.7l-3.7-18.3L523.5,364.2z"/>
			<path fill="#194723" d="M565.2,367.3l-2.8,0.6l1.5,7.1l3.2-0.6l1,5.1l-12.9,2.6l-1-5.1l3.4-0.7l-3.7-18.3l-3.4,0.7l-1-5.1
				l12.9-2.6l1,5.1l-3.2,0.6l1.3,6.4l2.9-0.6l4.6-7.7l-2.9,0.6l-1-5l12.5-2.6l1,5.1l-2.7,0.6l-6.1,9.9l10.1,8.4l2.8-0.6l1,5.1
				l-13.1,2.7l-1-5.1l2.8-0.6L565.2,367.3z"/>
			<path fill="#194723" d="M580.7,352.5l-1-5.1l23.8-4.9l1.9,9.5l-5.7,1.2l-0.9-4.4l-8.4,1.7l1.3,6.4l6.8-1.4l1,4.8l-6.8,1.4
				l1.5,7.1l8.6-1.7l-1-5l5.7-1.2l2.1,10.1l-24,4.9l-1-5.1l3.4-0.7l-3.7-18.3L580.7,352.5z"/>
			<path fill="#194723" d="M628.5,342.8l-3.3,0.7l-1-5.1l12.4-2.5l1,5.1l-3.3,0.7l4.8,23.4l-6,1.2c-1.5,0.3-2.1,0-3-1.2l-12.3-16.3
				l-0.4,0.1l3,14.6l3.4-0.7l1,5.1l-12.6,2.6l-1-5.1l3.4-0.7l-3.7-18.3l-3.4,0.7l-1-5.1l10.2-2.1c1.5-0.3,2,0,3,1.2l11.3,15.1
				l0.4-0.1L628.5,342.8z"/>
			<path fill="#194723" d="M661.7,332.9c2.2,1.5,3.8,4.5,5.2,11.6c1.4,7,1.2,10.5-0.3,12.7c-1.2,1.9-3.1,2.8-6.7,3.6l-15.8,3.2
				l-1-5.1l3.4-0.7l-3.7-18.3l-3.4,0.7l-1-5.1l15.8-3.2C657.8,331.5,659.8,331.6,661.7,332.9z M652.9,356.8l5.2-1.1
				c1.7-0.3,2.4-0.6,2.9-1.3c0.6-0.9,0.5-2.5-0.7-8.6c-1.2-6.1-1.8-7.6-2.7-8.2c-0.7-0.5-1.4-0.5-3.2-0.1l-5.2,1.1L652.9,356.8z"/>
		</g>
	</g>
</g>
</svg>
